<?xml version="1.0" standalone="no"?>
<!DOCTYPE svg PUBLIC "-//W3C//DTD SVG 20010904//EN"
 "http://www.w3.org/TR/2001/REC-SVG-20010904/DTD/svg10.dtd">
<svg version="1.0" xmlns="http://www.w3.org/2000/svg"
 width="640.000000pt" height="640.000000pt" viewBox="0 0 640.000000 640.000000"
 preserveAspectRatio="xMidYMid meet">
<metadata>
Created by potrace 1.11, written by Peter Selinger 2001-2013
</metadata>
<g transform="translate(0.000000,640.000000) scale(0.100000,-0.100000)"
fill="#000000" stroke="none">
<path d="M0 5224 l0 -1177 52 7 c35 4 68 17 98 38 40 28 61 33 220 56 157 23
200 26 425 23 l250 -3 29 25 c32 28 49 32 186 47 214 22 229 23 244 11 16 -13
133 -5 321 23 179 27 345 39 439 32 301 -22 547 -102 672 -217 77 -71 98 -98
87 -111 -6 -7 -13 -25 -17 -40 -5 -21 -3 -28 9 -28 19 0 20 -17 1 -22 -10 -2
-7 -12 13 -36 l28 -32 44 24 c31 18 73 28 144 37 179 21 198 21 253 8 l54 -13
-7 -40 c-3 -23 -10 -45 -16 -50 -13 -14 -11 -54 3 -58 7 -3 12 -24 13 -51 0
-35 6 -52 24 -68 14 -13 21 -29 18 -40 -4 -14 0 -19 13 -19 23 0 35 -18 33
-45 -2 -11 0 -14 3 -7 8 16 21 15 28 -3 8 -22 -4 -47 -21 -41 -11 4 -11 1 -3
-14 11 -20 7 -20 -182 -17 -111 2 -201 8 -213 14 -11 6 -33 11 -48 11 -16 0
-34 5 -40 11 -16 16 39 14 110 -4 31 -8 69 -15 84 -15 23 0 26 3 21 25 -2 14
-8 25 -13 25 -5 0 -6 6 -4 13 9 24 -30 58 -85 72 -99 26 -260 -6 -273 -55 -5
-18 -8 -19 -25 -9 -11 7 -18 19 -14 27 4 12 0 11 -20 -2 -24 -16 -26 -16 -32
0 -3 9 -1 23 5 30 9 11 7 15 -7 20 -11 3 -30 10 -44 16 -46 20 -101 26 -130
15 -22 -8 -35 -8 -54 2 -14 8 -39 11 -58 8 -19 -3 -47 -3 -63 1 -26 5 -27 6
-10 13 11 4 33 8 48 8 24 1 26 3 17 21 -13 25 -52 35 -79 20 -18 -9 -26 -7
-48 14 -15 14 -30 23 -33 19 -3 -3 1 -8 8 -10 16 -6 16 -43 0 -43 -7 1 -32 18
-55 39 -32 29 -39 41 -30 50 9 9 7 20 -7 46 -24 44 -14 56 19 25 20 -19 25
-20 25 -7 0 10 6 14 14 11 8 -3 17 -1 21 5 3 6 17 11 30 11 13 0 27 5 30 10 3
6 1 10 -4 10 -16 0 -13 16 5 34 8 9 12 16 7 17 -4 0 1 4 12 9 18 8 16 9 -8 9
-33 1 -97 29 -97 42 0 5 20 9 44 9 37 0 45 -4 50 -22 6 -20 7 -21 16 -6 13 22
60 31 111 23 38 -7 40 -9 34 -34 -3 -14 -13 -31 -21 -37 -24 -19 -16 -24 32
-24 40 0 45 -2 39 -17 -10 -26 -10 -36 5 -99 12 -47 15 -53 22 -34 4 12 17 24
29 27 27 7 22 45 -8 58 -23 10 -30 29 -15 39 5 3 7 19 4 36 -4 28 -2 30 27 30
29 0 31 2 21 21 -16 29 -8 33 35 19 27 -9 39 -9 50 0 8 6 19 9 24 6 5 -4 12
-2 15 3 8 12 -20 21 -103 35 -35 6 -64 16 -64 21 -2 16 -51 53 -80 60 -15 4
-30 11 -33 16 -9 15 -44 10 -44 -5 0 -8 -7 -21 -15 -29 -13 -13 -11 -16 14
-25 16 -6 32 -8 35 -5 3 4 6 1 6 -5 0 -7 -8 -12 -17 -12 -34 0 -93 13 -89 19
3 7 -30 40 -41 42 -5 1 -24 9 -43 19 -20 10 -54 22 -75 26 -22 4 -54 15 -71
24 -32 19 -98 15 -141 -8 -26 -14 -109 -16 -117 -3 -4 5 -24 12 -46 16 -25 4
-40 12 -40 21 0 8 -1 17 -2 22 -1 4 11 9 27 12 16 3 28 10 27 15 -3 14 -77 8
-252 -20 -19 -3 -78 -10 -130 -15 -52 -5 -205 -23 -340 -40 -135 -17 -281 -35
-325 -41 -44 -5 -116 -13 -160 -18 -44 -6 -125 -15 -180 -21 -222 -26 -426
-51 -528 -67 l-107 -16 0 -159 c0 -128 3 -162 15 -174 24 -24 23 -148 -1 -175
-20 -22 -20 -215 -1 -222 14 -5 12 -67 -3 -67 -4 0 -7 -26 -6 -57 0 -32 2 -50
4 -40 3 12 9 16 22 12 19 -6 34 9 36 35 1 8 2 25 3 38 0 13 5 20 11 17 7 -4 9
2 5 17 -5 21 -1 27 32 41 21 9 73 19 116 23 72 6 77 5 77 -13 0 -10 -5 -24
-12 -31 -7 -7 -8 -12 -2 -12 5 0 15 5 22 12 9 9 10 4 2 -21 -13 -46 -50 -102
-62 -95 -6 4 -8 2 -5 -3 8 -12 -8 -50 -59 -143 -63 -113 -103 -156 -105 -112
0 10 -3 12 -6 5 -9 -24 -34 14 -27 41 5 21 2 27 -20 36 -29 11 -33 27 -11 56
20 27 19 47 -5 62 -20 12 -20 11 -18 -203 l3 -216 60 -34 c33 -19 66 -34 73
-35 8 0 12 16 12 49 0 56 14 73 65 78 25 3 36 -1 42 -14 5 -10 6 -96 3 -192
-6 -186 -1 -268 15 -263 12 4 23 -30 24 -75 1 -21 -4 -33 -12 -33 -7 0 -13 -8
-14 -17 -1 -10 -5 -33 -9 -52 -5 -26 -4 -32 7 -29 8 3 22 1 32 -4 14 -7 17
-16 12 -38 -5 -23 -2 -31 15 -40 17 -9 25 -8 39 4 29 26 51 20 51 -13 0 -26 4
-30 38 -36 20 -3 84 -3 142 -1 345 17 360 19 360 31 0 20 -126 133 -206 185
-40 26 -98 56 -129 65 -58 19 -74 31 -27 22 65 -13 148 -52 210 -99 82 -62
182 -158 182 -175 0 -22 -37 -33 -113 -33 -40 0 -149 -3 -241 -7 -185 -7 -189
-8 -167 -68 10 -29 9 -38 -9 -69 -11 -20 -20 -52 -20 -70 0 -33 26 -97 43
-104 25 -12 -32 -52 -73 -52 -26 0 -27 -30 0 -37 23 -6 83 -125 78 -156 -4
-25 -26 -35 -24 -10 1 13 -5 17 -19 15 -12 -2 -16 0 -8 5 8 6 6 24 -9 71 -12
34 -25 62 -29 62 -12 0 -11 -17 2 -42 8 -14 8 -23 0 -31 -8 -8 -11 -5 -11 9 0
23 -36 61 -47 50 -4 -4 -1 -16 6 -27 15 -25 7 -37 -12 -21 -8 7 -17 9 -20 5
-4 -3 -9 2 -13 11 -3 9 -11 16 -18 16 -6 1 -22 10 -35 21 -18 15 -21 23 -13
31 21 21 14 58 -11 67 -15 6 -27 23 -35 49 -9 29 -20 43 -42 52 -21 9 -30 19
-30 36 0 13 5 24 10 24 6 0 10 -9 10 -20 0 -11 6 -20 14 -20 11 0 13 7 6 30
-5 16 -11 34 -15 40 -3 5 4 14 16 19 l23 8 -27 18 c-35 22 -34 35 1 34 21 0
33 -10 57 -47 17 -26 33 -45 36 -42 3 3 13 -1 22 -9 15 -12 17 -11 17 12 0 20
-4 24 -20 20 -31 -8 -46 17 -47 81 0 46 -5 62 -19 73 -21 16 -34 13 -48 -10
-11 -17 -3 -29 29 -40 6 -3 7 -8 3 -12 -4 -4 -20 1 -37 11 -24 14 -28 21 -20
35 5 10 9 19 9 21 0 9 -45 6 -56 -3 -8 -6 -13 -3 -17 10 -4 18 -8 19 -35 9
-30 -12 -31 -14 -31 -74 0 -51 3 -61 17 -60 9 0 18 -7 20 -16 2 -13 -3 -18
-17 -18 -20 0 -21 -5 -21 -153 l0 -153 43 0 c23 0 58 -3 77 -6 25 -4 41 -1 58
13 l24 19 24 -36 c13 -19 24 -38 24 -42 1 -16 116 -73 138 -69 16 3 22 1 18
-9 -3 -7 3 -20 12 -29 51 -47 120 -120 117 -123 -2 -3 -25 14 -51 37 -49 43
-70 52 -60 25 3 -9 6 -19 6 -23 0 -4 33 -41 73 -82 39 -41 79 -87 87 -104 8
-16 22 -42 32 -57 10 -14 18 -34 18 -45 0 -36 31 -43 137 -33 274 28 293 26
293 -25 0 -17 9 -27 33 -36 17 -7 39 -13 47 -13 8 -1 16 -11 18 -24 2 -12 12
-27 23 -32 10 -6 19 -17 19 -25 0 -10 10 -15 29 -15 16 0 34 -7 41 -15 7 -8
21 -15 31 -15 10 0 21 -4 24 -10 9 -15 23 -12 42 10 10 11 22 20 27 20 6 0 -6
-17 -26 -37 -56 -58 -94 -159 -108 -283 -6 -58 -15 -127 -21 -155 -6 -27 -11
-61 -11 -75 0 -14 -5 -44 -10 -67 -6 -23 -7 -58 -4 -78 l7 -35 383 0 384 0 15
33 c8 17 31 84 52 147 29 92 167 385 192 410 3 3 2 -15 -1 -40 -3 -25 -8 -92
-12 -150 -3 -64 -14 -129 -26 -165 -21 -62 -68 -222 -68 -230 0 -3 230 -5 510
-5 281 0 510 3 510 8 0 4 7 63 15 132 8 69 19 172 25 230 9 90 24 219 46 398
6 48 24 57 24 12 0 -40 14 -38 28 3 11 31 11 31 7 -13 -3 -25 -14 -115 -24
-200 -11 -85 -27 -227 -36 -315 -8 -88 -18 -181 -21 -207 l-6 -48 145 0 146 0
11 57 c7 31 16 66 21 77 4 12 15 48 25 81 13 48 18 56 25 40 4 -11 8 -15 8 -8
1 6 4 19 8 29 4 12 3 15 -5 10 -8 -5 -12 2 -12 19 0 16 4 24 10 20 6 -4 18 -1
27 7 14 11 16 11 11 -2 -3 -9 -11 -42 -18 -75 -7 -33 -17 -69 -22 -79 -9 -17
-20 -56 -45 -153 l-5 -23 598 0 599 0 2 103 c1 56 2 155 3 220 0 90 4 117 13
113 7 -3 20 -9 30 -12 17 -6 18 -16 13 -122 -4 -84 -2 -129 9 -166 7 -28 19
-70 25 -93 l11 -43 449 0 c349 0 449 3 453 13 3 9 9 9 26 0 19 -12 91 -18 91
-9 0 3 -18 53 -40 113 -45 122 -45 123 -26 123 17 0 51 -69 67 -137 13 -51 28
-87 35 -81 3 4 -10 75 -37 203 -4 22 -20 78 -34 125 -15 47 -30 99 -35 115
-23 90 -89 295 -104 322 -9 18 -16 38 -16 45 0 7 -28 68 -63 136 -61 118 -120
202 -133 190 -3 -4 1 -28 9 -55 9 -26 19 -70 22 -98 4 -27 11 -66 16 -85 29
-115 41 -320 19 -320 -10 0 -20 37 -20 74 0 31 -61 336 -85 426 -8 30 -23 66
-35 82 -11 15 -20 36 -20 46 0 26 -30 83 -40 77 -5 -3 -4 -20 1 -38 16 -55 10
-137 -11 -137 -4 0 -10 22 -13 49 -8 67 -66 251 -87 276 -32 38 -60 92 -60
116 0 27 -6 36 -37 63 l-23 19 -20 -49 c-35 -81 -50 -177 -70 -434 -15 -209
-22 -256 -44 -319 -14 -41 -28 -76 -31 -79 -2 -3 -14 6 -25 19 -16 19 -19 33
-15 64 15 122 27 258 35 405 10 195 31 330 64 410 5 13 -3 16 -40 18 -74 3
-82 8 -90 57 l-6 45 -24 -23 c-12 -12 -29 -22 -36 -22 -7 0 -14 -13 -16 -28
-5 -45 -26 -25 -35 33 -4 30 -9 56 -12 58 -9 10 -47 -96 -65 -183 -46 -218
-47 -376 -5 -595 28 -140 35 -236 21 -282 l-12 -43 -21 40 c-45 91 -103 382
-103 523 0 220 31 419 81 526 16 33 29 66 29 71 0 11 -50 12 -68 1 -7 -4 -18
-4 -24 -1 -7 4 -1 -4 15 -17 l27 -24 -33 -32 c-18 -18 -36 -32 -39 -32 -4 0
-20 23 -37 51 -30 48 -33 69 -8 69 7 0 13 17 15 37 1 20 9 44 17 53 8 9 18 32
22 50 l6 35 -30 -25 c-16 -14 -62 -45 -102 -70 -40 -25 -102 -65 -138 -88 -77
-52 -126 -74 -147 -66 -9 3 -16 1 -16 -5 0 -6 -10 -11 -21 -11 -18 0 -19 2 -9
15 7 8 19 15 27 15 22 0 68 26 208 119 125 83 202 147 191 158 -3 3 -12 0 -21
-7 -8 -7 -21 -10 -30 -7 -8 4 -17 2 -20 -3 -3 -6 -15 -14 -25 -20 -18 -10 -18
-8 1 36 15 32 18 49 10 57 -7 7 -13 3 -20 -15 -11 -30 -31 -46 -31 -26 0 8 14
55 30 106 17 51 30 96 30 100 -1 13 -39 -63 -55 -110 -9 -27 -20 -48 -25 -48
-9 0 0 44 24 115 9 27 20 77 23 111 5 52 2 70 -17 106 -40 77 -90 116 -144
109 -25 -3 -11 18 20 29 31 12 30 24 0 38 -29 13 -60 57 -51 71 8 14 61 3 120
-26 95 -47 108 -70 125 -223 6 -58 15 -128 19 -157 4 -29 3 -59 -2 -68 -13
-23 9 -71 44 -96 21 -15 29 -29 29 -50 0 -22 6 -32 24 -39 13 -5 39 -28 58
-50 38 -49 80 -73 126 -75 23 -1 70 -27 160 -88 71 -48 137 -87 148 -87 11 0
31 -11 44 -25 21 -23 50 -34 50 -19 0 11 -44 69 -67 87 -12 10 -25 28 -29 40
-3 12 -16 33 -28 46 l-21 24 21 -5 c17 -4 20 -2 16 14 -2 10 -13 23 -24 29
-14 7 -18 7 -14 1 3 -6 2 -13 -4 -17 -16 -10 -90 55 -83 72 5 11 1 14 -13 10
-18 -6 -64 22 -64 39 0 5 15 21 32 36 34 29 27 40 -8 13 -26 -19 -32 -19 -39
6 -8 25 -35 53 -59 62 -29 11 -12 31 28 34 21 1 41 4 43 7 3 3 14 1 24 -5 15
-7 19 -6 19 6 0 8 -7 15 -15 15 -8 0 -19 10 -26 21 -9 17 -13 19 -20 8 -10
-16 -12 -8 -9 36 0 18 -9 45 -22 65 -13 19 -30 51 -38 70 -8 19 -25 44 -39 55
-68 56 -79 71 -74 99 5 25 -16 55 -39 56 -14 0 -9 -27 7 -40 19 -16 19 -30 0
-30 -8 0 -24 18 -34 39 l-20 39 21 -6 c17 -4 20 -2 15 13 -6 14 -3 16 18 11
35 -9 31 -2 -11 23 -37 22 -57 20 -47 -4 3 -10 -1 -15 -15 -15 -11 0 -23 -7
-26 -16 -8 -20 -26 -9 -26 16 0 14 -6 19 -22 17 -17 -1 -24 5 -31 31 -6 17
-14 32 -20 32 -5 0 -6 -8 -3 -17 6 -15 4 -15 -14 2 -11 10 -20 26 -20 37 0 10
-7 18 -17 18 -9 0 -25 8 -35 17 -18 16 -22 16 -63 0 l-45 -16 0 23 c0 13 7 29
15 36 8 7 12 16 9 22 -3 5 -1 15 5 22 6 7 10 22 10 32 -4 35 1 54 12 54 8 0 9
-20 4 -64 -6 -61 -5 -64 13 -59 11 2 23 0 26 -6 4 -6 15 -7 29 -2 12 5 27 8
32 8 6 0 12 8 14 19 2 10 10 23 18 28 8 4 22 24 30 45 17 39 17 39 42 -30 8
-21 18 -27 52 -32 59 -8 75 4 94 70 25 90 34 106 33 58 0 -22 7 -66 16 -98 10
-35 16 -98 16 -157 l0 -100 40 -20 c40 -20 72 -58 75 -88 1 -10 8 -53 15 -97
11 -67 18 -84 46 -111 36 -37 58 -93 51 -130 -2 -13 0 -27 5 -30 4 -3 6 -10 2
-15 -3 -6 2 -16 12 -24 20 -14 38 -10 29 6 -7 10 4 15 58 24 23 4 37 2 37 -5
0 -5 -16 -10 -36 -10 -23 0 -33 -4 -28 -11 3 -6 19 -9 35 -7 44 7 63 -20 57
-81 -4 -43 -2 -53 19 -72 12 -13 23 -28 23 -35 0 -7 4 -14 9 -16 5 -1 25 -25
45 -51 26 -34 35 -54 31 -69 -5 -13 1 -28 16 -44 27 -29 44 -32 29 -5 -13 25
-13 41 0 41 6 0 10 -4 10 -10 0 -5 13 -32 30 -58 38 -63 38 -69 -4 -37 -21 16
-37 22 -41 16 -10 -17 14 -51 35 -51 10 0 22 -5 25 -10 5 -8 11 -8 19 -1 17
14 19 11 56 -65 26 -55 29 -67 18 -87 -12 -21 -13 -20 -18 19 -7 47 -58 119
-91 127 -20 5 -21 3 -14 -41 4 -26 18 -62 33 -82 35 -46 193 -214 206 -219 6
-2 34 -14 61 -26 28 -13 75 -33 105 -46 30 -12 105 -46 165 -75 61 -28 135
-63 166 -77 l57 -26 1 -64 1 -65 -98 -17 c-53 -9 -113 -20 -132 -25 -19 -4
-54 -11 -77 -15 -48 -8 -50 -11 -25 -57 33 -61 92 -206 92 -228 0 -19 -2 -20
-15 -10 -12 10 -15 9 -14 -6 0 -11 4 -28 9 -39 8 -19 9 -19 9 2 1 18 9 22 64
30 l62 8 27 55 c35 71 36 86 3 64 -14 -9 -25 -13 -25 -10 0 15 33 142 39 148
3 4 41 11 85 17 60 7 87 6 116 -4 33 -12 40 -12 51 1 12 15 84 20 93 6 9 -14
-19 -39 -59 -51 -63 -20 -114 -57 -195 -140 -72 -73 -73 -76 -47 -79 20 -3 36
7 69 41 24 24 61 55 83 69 46 30 105 46 105 28 0 -19 -20 -50 -32 -50 -16 0
-68 -57 -68 -75 0 -9 12 -18 30 -21 19 -4 30 -13 30 -24 0 -25 -9 -30 -38 -19
-18 7 -34 6 -56 -5 -61 -28 -72 -28 -104 -1 -31 26 -69 27 -116 3 -13 -7 -16
-7 -12 1 14 22 -20 9 -56 -22 -59 -50 -60 -90 -9 -273 52 -186 60 -204 80
-204 20 -1 51 -24 51 -39 0 -8 53 -11 185 -11 l185 0 0 565 c0 333 -4 565 -10
565 -5 0 -12 -5 -15 -10 -5 -7 -11 -8 -19 -1 -6 5 -51 11 -99 12 -119 2 -137
7 -129 29 4 10 24 30 45 44 34 23 47 26 133 26 l94 0 -2 288 -3 287 -29 1
c-16 1 -33 8 -38 18 -5 9 -16 16 -24 16 -9 0 -14 5 -12 12 6 16 47 17 63 1 8
-7 21 -13 29 -13 13 0 16 15 16 89 0 62 -4 91 -12 94 -10 4 -10 6 0 6 8 1 12
25 12 86 0 47 -3 85 -6 85 -14 0 -86 -64 -98 -89 -7 -14 -17 -53 -21 -85 -4
-33 -10 -69 -15 -80 -4 -11 -3 -34 1 -50 10 -34 3 -51 -16 -36 -9 8 -15 8 -20
0 -9 -14 4 -32 17 -24 8 5 9 -1 5 -17 -4 -13 -7 -28 -7 -32 0 -18 -29 22 -36
49 -4 16 -11 34 -15 40 -22 28 -28 111 -12 180 8 38 15 79 15 91 0 30 94 131
157 168 l51 30 0 158 c0 86 -3 157 -7 157 -5 0 -48 -7 -96 -16 -48 -9 -91 -13
-95 -9 -15 15 40 43 99 50 75 9 99 29 99 83 0 38 -33 121 -53 134 -17 11 11
37 33 31 15 -4 20 0 20 17 0 17 -4 20 -20 15 -22 -7 -26 6 -9 36 5 11 14 17
20 14 5 -4 9 53 9 148 l0 155 -27 5 c-16 3 -71 -1 -123 -9 -148 -23 -306 -30
-325 -14 -12 10 -19 10 -27 2 -19 -19 -24 -14 -24 23 0 21 5 35 12 35 7 0 20
10 28 21 9 14 21 19 31 15 9 -3 26 0 38 8 12 8 47 14 77 15 30 0 66 3 80 6 14
3 68 8 120 11 149 8 140 2 140 89 0 68 -2 75 -20 75 -12 0 -20 7 -20 18 -1 15
-2 15 -16 -3 -16 -21 -39 -22 -60 -1 -10 11 -8 17 14 35 23 18 25 23 12 31
-17 11 -47 14 -37 3 4 -3 -10 -12 -30 -19 -42 -15 -50 -13 -30 7 8 8 16 21 19
29 5 17 88 22 88 6 0 -6 5 -5 12 2 9 9 9 15 0 24 -17 17 -15 28 6 29 16 1 -10
10 -70 23 -25 6 -27 10 -26 58 0 32 6 57 15 67 14 13 14 16 -3 22 -11 4 -37 8
-59 8 -22 1 -47 6 -55 11 -13 9 -13 11 0 20 8 5 31 10 50 11 19 0 46 4 60 8
52 14 -6 26 -135 27 -71 1 -175 7 -229 13 -72 9 -102 9 -110 1 -7 -7 -11 -61
-11 -145 0 -85 -4 -138 -11 -145 -6 -6 -29 -10 -50 -8 l-39 3 -7 69 c-9 90
-16 118 -29 110 -7 -4 -9 19 -7 69 3 75 3 76 33 81 35 7 77 56 101 118 20 50
34 69 34 46 0 -11 8 -16 20 -15 11 1 20 4 20 8 0 4 15 3 33 -3 17 -6 42 -11
55 -12 14 -2 29 -14 38 -32 20 -38 31 -44 86 -44 39 0 48 4 53 21 8 25 9 23
-37 42 -22 9 -40 12 -43 6 -9 -14 -45 -11 -44 4 0 6 4 20 8 30 6 17 8 17 20 3
17 -20 61 -21 61 -1 0 8 -8 19 -18 24 -22 12 -22 65 0 69 10 2 22 -14 37 -50
l21 -53 116 0 c104 1 117 -1 130 -19 13 -19 14 -19 34 -1 20 18 20 27 20 767
l0 748 -25 -6 c-14 -3 -37 1 -56 10 -17 9 -35 13 -40 10 -5 -3 -18 0 -30 7
-16 8 -27 8 -45 -1 -19 -11 -27 -10 -49 4 -17 11 -36 15 -54 11 -15 -3 -40 -1
-54 4 -24 9 -26 13 -15 30 15 24 52 35 77 22 13 -7 23 -6 33 2 12 10 14 28 8
97 -6 67 -4 97 10 140 l16 55 7 -90 c15 -191 18 -205 38 -205 12 0 19 7 19 20
0 21 15 27 25 10 3 -5 1 -10 -4 -10 -6 0 -11 -5 -11 -11 0 -5 4 -8 9 -5 5 3
22 -1 37 -9 37 -19 54 -19 54 0 0 8 5 15 10 15 6 0 13 -7 16 -15 18 -46 23 15
24 290 l1 305 -286 0 -285 0 0 -35 c0 -19 -4 -35 -10 -35 -5 0 -10 16 -10 35
0 32 -2 35 -31 35 l-31 0 5 -77 c3 -43 1 -87 -3 -99 -5 -12 -5 -70 -2 -130 7
-109 7 -109 32 -107 22 2 23 1 7 -8 -23 -13 -97 -2 -103 16 -3 7 -29 16 -57
20 -29 4 -65 15 -82 25 -27 17 -101 32 -227 47 -70 8 -78 -3 -78 -102 0 -45
-3 -97 -6 -114 -7 -36 -31 -42 -36 -8 -3 20 -9 22 -72 25 -59 3 -72 0 -92 -19
-14 -13 -27 -18 -35 -13 -15 9 -41 12 -142 18 -65 4 -167 16 -397 46 -114 14
-160 13 -160 -5 0 -8 -7 -15 -15 -15 -10 0 -15 10 -15 34 0 39 38 72 72 63 11
-3 31 1 44 9 26 17 48 10 40 -12 -3 -9 4 -19 19 -26 21 -9 28 -8 45 7 26 23
26 65 1 72 -19 5 -28 58 -10 68 5 4 9 10 9 15 0 13 -124 7 -135 -7 -5 -7 -27
-13 -47 -15 -30 -2 -38 -6 -38 -21 0 -10 -5 -17 -12 -14 -9 2 -14 29 -15 78
-1 41 -4 92 -7 114 -2 22 -4 61 -5 88 l-1 47 -177 0 -178 0 3 -141 c3 -124 1
-143 -14 -154 -13 -9 -18 -30 -20 -84 -3 -81 -7 -91 -33 -84 -23 6 -31 -20
-31 -99 0 -58 -6 -68 -28 -46 -17 17 -35 -38 -28 -84 3 -20 1 -49 -4 -63 -9
-23 -13 -25 -25 -15 -23 19 -29 6 -31 -63 -2 -102 -2 -101 -19 -87 -8 6 -18 9
-23 6 -14 -9 -23 -66 -13 -85 14 -25 -1 -86 -21 -86 -27 0 -32 -13 -33 -81 -1
-64 -15 -98 -30 -74 -11 17 -37 -39 -29 -63 6 -19 3 -20 -78 -14 -83 6 -86 5
-96 -19 -16 -34 -69 -34 -82 1 -6 15 -20 27 -37 31 -15 4 -33 11 -39 16 -6 4
-18 6 -26 3 -13 -5 -16 12 -22 102 -13 221 -11 263 13 279 26 19 26 29 1 54
-25 25 -29 110 -5 110 21 0 19 10 -9 45 -21 26 -26 28 -49 18 -17 -8 -29 -9
-32 -3 -4 6 -26 10 -49 10 -35 0 -45 -4 -49 -20 -7 -27 -37 -26 -37 1 0 19 -4
21 -37 14 -21 -4 -42 -10 -48 -13 -5 -4 -18 -5 -28 -4 -25 5 -35 -31 -26 -96
4 -31 4 -62 0 -70 -9 -16 -2 -62 9 -62 9 0 20 -78 13 -96 -4 -10 -26 -14 -79
-14 -41 0 -74 -4 -74 -9 0 -20 -70 -81 -93 -81 -13 0 -27 -3 -31 -7 -11 -12
-38 -16 -133 -19 l-92 -3 1 65 c0 48 -4 70 -17 84 -13 14 -16 29 -11 62 10 74
8 86 -23 153 -13 28 -25 72 -27 99 -1 26 -7 53 -13 59 -6 6 -11 7 -12 2 0 -6
-2 -43 -4 -84 -2 -41 -8 -77 -13 -80 -16 -11 -34 -103 -23 -114 16 -16 13 -86
-3 -102 -10 -10 -13 -31 -10 -69 4 -62 -2 -67 -64 -59 -32 4 -42 10 -46 30 -4
13 -17 29 -31 35 -19 8 -25 20 -27 51 -4 55 -28 62 -28 8 0 -22 -4 -42 -9 -46
-19 -11 -61 109 -61 175 0 19 -5 42 -10 50 -11 17 -10 19 -16 -70 -6 -98 -8
-108 -27 -130 -10 -12 -16 -27 -14 -33 3 -11 -20 -36 -34 -37 -4 0 -9 34 -11
76 -3 42 -10 79 -17 83 -7 5 -10 32 -9 73 1 54 -3 76 -26 122 -17 34 -29 76
-30 108 -4 71 -25 76 -25 6 0 -30 -7 -74 -16 -98 -27 -74 -35 -114 -25 -124
15 -15 12 -95 -3 -110 -11 -12 -15 -86 -5 -125 2 -8 -8 -17 -24 -21 -26 -8
-37 1 -44 35 -1 6 -3 12 -4 15 -1 3 -4 39 -7 80 -3 41 -7 77 -9 79 -10 11 -15
-13 -18 -86 -3 -74 -21 -143 -38 -143 -5 0 -9 12 -9 28 -2 36 -2 40 -19 90
l-14 43 -13 -52 c-8 -29 -11 -65 -8 -79 9 -40 -13 -59 -79 -70 -33 -5 -61 -8
-63 -7 -1 2 -5 25 -7 52 -3 27 -11 52 -19 56 -10 6 -12 22 -7 66 4 32 3 69 -2
83 -17 52 -21 60 -29 60 -4 0 -11 20 -15 45 -7 52 -27 56 -31 7 -2 -17 -11
-46 -21 -64 -16 -27 -18 -48 -15 -117 3 -53 1 -86 -6 -90 -6 -4 -11 -29 -12
-56 -2 -56 -14 -88 -32 -82 -6 2 -12 14 -12 28 0 15 -6 24 -15 24 -8 0 -19 6
-23 13 -16 24 -30 13 -23 -19 3 -17 1 -40 -5 -51 -21 -39 -29 3 -28 140 1 73
-1 136 -5 139 -3 4 1 14 9 23 14 16 14 18 0 24 -11 4 -14 13 -10 26 4 13 0 23
-14 32 -12 7 -21 18 -21 25 0 7 -4 13 -10 13 -5 0 -10 6 -10 14 0 7 -9 25 -20
39 -11 14 -20 32 -20 41 0 9 -7 19 -15 22 -8 4 -15 15 -15 25 0 11 -7 22 -15
25 -8 4 -15 15 -15 25 0 10 -6 19 -14 19 -17 0 -31 95 -21 140 6 29 4 31 -27
34 -8 1 -12 -23 -12 -76 -1 -47 -6 -82 -13 -90 -7 -6 -13 -20 -13 -30 0 -10
-7 -21 -15 -24 -8 -4 -15 -14 -15 -24 0 -10 -7 -23 -15 -30 -8 -7 -15 -17 -15
-22 0 -6 -13 -29 -28 -52 -15 -22 -31 -49 -35 -58 -3 -10 -12 -18 -18 -18 -7
0 -9 -9 -5 -24 4 -15 0 -28 -9 -36 -19 -16 -19 -30 -1 -30 10 0 13 -26 14
-120 1 -107 -1 -121 -17 -130 -14 -7 -22 -6 -31 5 -14 17 -40 20 -40 5 0 -7
-25 -10 -67 -8 l-68 3 -1 60 c-1 33 -4 107 -8 165 -3 58 -6 174 -7 259 -1 157
4 179 39 166 8 -3 19 -2 25 2 7 5 -4 10 -26 13 l-37 5 -6 135 c-2 74 -9 150
-14 169 -5 19 -7 38 -4 42 2 4 0 10 -6 14 -5 3 -10 15 -10 26 0 10 -4 19 -9
19 -10 0 -34 -117 -35 -175 -1 -29 -6 -41 -18 -43 -18 -4 -18 -5 -39 201 l-11
117 -74 0 -74 0 0 -1176z m6259 964 c0 -18 -3 -27 -6 -20 -2 6 -8 10 -13 7 -4
-3 -7 6 -6 20 2 38 26 31 25 -7z m-1823 -113 c-1 -30 -34 -45 -50 -23 -7 8
-26 14 -48 13 -20 -1 -35 2 -32 7 4 5 24 8 45 7 21 -2 44 2 51 9 20 20 36 14
34 -13z m1924 15 c0 -5 -4 -10 -10 -10 -5 0 -10 5 -10 10 0 6 5 10 10 10 6 0
10 -4 10 -10z m-2140 -20 c0 -5 -4 -10 -10 -10 -5 0 -10 5 -10 10 0 6 5 10 10
10 6 0 10 -4 10 -10z m1125 -6 c13 -5 14 -8 3 -15 -9 -6 -14 -36 -16 -96 -3
-100 -8 -133 -22 -133 -17 0 -22 43 -15 146 8 107 11 113 50 98z m1015 -24 c0
-5 -4 -10 -10 -10 -5 0 -10 5 -10 10 0 6 5 10 10 10 6 0 10 -4 10 -10z m-695
-50 c3 -5 -1 -10 -9 -10 -8 0 -18 5 -21 10 -3 6 1 10 9 10 8 0 18 -4 21 -10z
m376 -30 l24 -21 -40 16 c-24 10 -54 14 -75 10 -19 -3 -57 -1 -85 4 -45 8 -40
9 51 10 89 1 105 -2 125 -19z m-5861 -126 c0 -2 -7 -4 -15 -4 -8 0 -15 4 -15
10 0 5 7 7 15 4 8 -4 15 -8 15 -10z m4820 -170 c0 -8 -4 -12 -10 -9 -5 3 -10
13 -10 21 0 8 5 12 10 9 6 -3 10 -13 10 -21z m-172 -22 c3 -25 -1 -32 -14 -32
-11 0 -15 6 -11 20 3 11 1 23 -4 26 -13 7 0 26 14 21 7 -2 13 -18 15 -35z
m904 -48 c-2 -16 -5 -45 -6 -64 -2 -18 -8 -36 -14 -38 -15 -5 -35 35 -25 51 4
6 6 22 4 35 -3 26 16 55 33 49 6 -2 10 -17 8 -33z m-2677 -3 c19 -11 19 -11
-5 -9 -16 2 -26 10 -28 23 -2 12 0 16 5 9 4 -6 17 -16 28 -23z m1455 -51 c0
-5 -2 -10 -4 -10 -3 0 -8 5 -11 10 -3 6 -1 10 4 10 6 0 11 -4 11 -10z m-286
-31 c-8 -13 -24 -1 -24 18 0 13 3 13 15 3 8 -7 12 -16 9 -21z m794 -14 c19 -7
14 -49 -8 -68 -23 -20 -27 -42 -5 -33 11 4 15 -1 15 -19 0 -17 6 -25 23 -27
19 -3 22 -10 25 -56 3 -48 1 -53 -15 -48 -10 3 -60 8 -111 10 -52 2 -96 7
-100 10 -6 7 -7 15 -17 149 l-7 98 94 -6 c51 -4 99 -8 106 -10z m1040 -13 c3
-9 -3 -13 -19 -10 -12 1 -24 9 -27 16 -3 9 3 13 19 10 12 -1 24 -9 27 -16z
m-732 -199 c-1 -51 -4 -58 -23 -61 -19 -3 -21 1 -18 33 3 31 28 85 39 85 2 0
3 -26 2 -57z m-3233 -39 c32 -6 37 -10 37 -35 0 -34 -19 -48 -35 -26 -15 21
-25 22 -25 2 0 -26 -18 -16 -29 16 -19 54 -18 54 52 43z m-733 -41 c-1 -32
-15 -52 -39 -55 -20 -2 -27 -9 -29 -30 -4 -33 -22 -38 -22 -6 0 12 -8 30 -17
40 -22 24 -6 40 42 43 20 1 39 5 42 9 9 8 23 8 23 -1z m3667 -65 l43 1 2 -269
c1 -149 2 -296 3 -327 l0 -58 -100 3 c-55 2 -104 8 -109 12 -5 5 -11 29 -13
52 -2 24 -5 55 -7 71 -2 15 -4 39 -5 53 -2 36 -34 28 -41 -10 -3 -16 -11 -31
-17 -34 -19 -6 -17 92 2 108 8 7 15 18 15 26 0 20 21 28 32 13 6 -9 8 32 5
119 -3 74 -8 136 -11 140 -4 3 -11 1 -17 -5 -6 -6 -26 -7 -48 -3 -20 4 -46 3
-57 -1 -31 -12 -46 -10 -42 8 2 11 15 17 38 18 19 2 49 6 66 10 20 4 34 3 38
-4 12 -19 26 -12 26 12 0 13 11 34 25 47 14 13 25 20 25 15 0 -5 6 -3 12 3 9
9 26 11 53 6 21 -3 58 -6 82 -6z m-2729 -25 c-2 -10 -12 -18 -23 -18 -11 0
-21 8 -23 18 -3 13 3 17 23 17 20 0 26 -4 23 -17z m3429 -43 c-2 -46 -5 -60
-16 -58 -21 4 -39 39 -23 45 6 3 12 17 12 32 0 15 3 31 7 34 16 17 21 3 20
-53z m-402 26 c3 -12 4 -156 3 -321 l-3 -300 -27 -3 -28 -3 0 159 c0 87 -3
233 -7 325 l-6 166 32 -1 c23 -1 33 -6 36 -22z m-4247 -29 c8 3 12 -5 12 -24
0 -39 -8 -45 -36 -26 -17 10 -24 25 -24 46 0 28 1 29 18 15 9 -9 23 -13 30
-11z m2522 -19 c0 -23 -3 -29 -9 -19 -8 12 -4 51 5 51 2 0 4 -15 4 -32z m1164
-103 c-4 -8 -10 -15 -15 -15 -4 0 -6 7 -3 15 4 8 10 15 15 15 4 0 6 -7 3 -15z
m-2156 -57 c5 -7 12 -24 14 -38 2 -16 14 -30 35 -40 17 -8 34 -24 37 -35 8
-29 -4 -33 -21 -7 -9 12 -23 22 -32 22 -22 0 -41 20 -41 43 0 10 -9 21 -20 24
-16 4 -18 9 -9 24 11 22 22 24 37 7z m42 -193 c0 -61 -100 -104 -108 -47 -3
20 0 23 16 18 15 -5 21 -1 26 18 5 22 13 26 59 35 4 0 7 -10 7 -24z m2050 -45
c0 -5 -4 -10 -10 -10 -5 0 -10 5 -10 10 0 6 5 10 10 10 6 0 10 -4 10 -10z
m1032 -60 c3 -56 2 -59 -17 -54 -31 10 -39 22 -26 38 7 8 11 19 8 23 -7 11 10
53 22 53 5 0 11 -27 13 -60z m-1122 -21 c-7 -12 -10 -30 -7 -40 3 -10 1 -19
-4 -19 -5 0 -9 28 -9 62 0 59 1 61 15 40 13 -17 13 -26 5 -43z m-2120 37 c0
-3 -4 -8 -10 -11 -5 -3 -10 -1 -10 4 0 6 5 11 10 11 6 0 10 -2 10 -4z m-293
-28 c-3 -8 -6 -5 -6 6 -1 11 2 17 5 13 3 -3 4 -12 1 -19z m783 -8 c0 -5 -4
-10 -9 -10 -6 0 -13 5 -16 10 -3 6 1 10 9 10 9 0 16 -4 16 -10z m-285 -20 c-3
-5 -10 -10 -16 -10 -5 0 -9 5 -9 10 0 6 7 10 16 10 8 0 12 -4 9 -10z m2143
-13 c2 -10 -3 -17 -12 -17 -10 0 -16 9 -16 21 0 24 23 21 28 -4z m-1623 3 c-3
-5 -11 -10 -16 -10 -6 0 -7 5 -4 10 3 6 11 10 16 10 6 0 7 -4 4 -10z m535 0
c0 -5 -4 -10 -10 -10 -5 0 -10 5 -10 10 0 6 5 10 10 10 6 0 10 -4 10 -10z
m1034 -26 c24 -9 9 -24 -24 -24 -29 0 -45 12 -33 24 8 8 37 8 57 0z m-569 -24
c0 -22 -29 -18 -33 3 -3 14 1 18 15 15 10 -2 18 -10 18 -18z m1445 -22 c24
-52 25 -78 5 -78 -12 0 -15 -20 -15 -120 0 -66 -4 -120 -9 -120 -13 0 -25 122
-18 187 5 49 4 56 -14 60 -14 4 -18 11 -14 27 7 23 38 86 43 86 2 0 12 -19 22
-42z m-992 17 c-10 -11 -48 -14 -48 -4 0 5 12 9 27 9 14 0 24 -2 21 -5z
m-2033 -63 c-11 -11 -27 17 -20 35 6 16 8 16 16 -6 5 -13 7 -26 4 -29z m1433
16 c-2 -6 -10 -14 -16 -16 -7 -2 -10 2 -6 12 7 18 28 22 22 4z m297 -18 c-3
-5 -10 -10 -16 -10 -5 0 -9 5 -9 10 0 6 7 10 16 10 8 0 12 -4 9 -10z m-353
-20 c16 -15 18 -20 7 -20 -16 0 -39 19 -39 32 0 13 9 9 32 -12z m981 -36 c11
-19 42 -18 57 1 24 29 30 -6 30 -184 0 -134 -3 -172 -12 -163 -19 19 -38 -6
-38 -49 0 -35 -2 -39 -26 -39 l-26 0 3 -361 4 -362 -22 -3 c-33 -5 -42 15 -47
102 -2 28 -6 56 -10 63 -4 6 0 19 9 28 14 14 16 37 15 152 -2 93 2 146 10 167
12 28 11 35 -8 66 -25 41 -28 94 -7 122 8 11 15 29 15 41 0 12 -7 30 -15 41
-16 22 -20 100 -5 109 6 3 10 23 10 44 0 27 -8 46 -27 67 -22 24 -27 39 -28
89 -1 78 12 95 68 87 23 -2 46 -11 50 -18z m331 -37 c8 -38 6 -156 -2 -183 -6
-17 -11 -20 -28 -13 -20 7 -22 15 -23 119 -1 61 1 115 4 120 10 17 43 -12 49
-43z m631 -17 c-3 -5 -15 -10 -26 -10 -10 0 -19 5 -19 10 0 6 12 10 26 10 14
0 23 -4 19 -10z m-2665 -50 c0 -5 -5 -10 -11 -10 -5 0 -7 5 -4 10 3 6 8 10 11
10 2 0 4 -4 4 -10z m1515 -20 c3 -5 1 -10 -4 -10 -6 0 -11 5 -11 10 0 6 2 10
4 10 3 0 8 -4 11 -10z m-1375 -32 c0 -9 3 -9 11 -1 14 14 49 5 49 -13 0 -9
-11 -14 -29 -14 -16 0 -34 -7 -41 -15 -7 -8 -19 -15 -28 -15 -12 0 -11 5 7 21
12 12 20 27 17 35 -3 8 -1 14 4 14 6 0 10 -5 10 -12z m253 -5 c16 -9 6 -23
-17 -23 -13 0 -26 -6 -28 -12 -4 -10 -9 -9 -21 3 -10 10 -26 15 -41 12 -36 -7
-32 5 7 22 28 13 76 12 100 -2z m-393 -10 c0 -8 15 -13 41 -13 24 0 38 -4 34
-10 -3 -5 -17 -10 -30 -10 -13 0 -29 -8 -34 -17 -10 -17 -12 -16 -28 4 -13 16
-24 21 -40 17 -23 -6 -28 2 -18 28 7 18 75 18 75 1z m473 -17 c19 -15 23 -36
6 -36 -20 0 -49 21 -49 35 0 18 19 19 43 1z m-235 -23 c-4 -20 -18 -26 -37
-14 -18 12 -5 31 20 31 14 0 19 -6 17 -17z m312 2 c-13 -16 -40 -20 -40 -7 0
14 12 22 33 22 16 0 17 -3 7 -15z m313 -13 c10 -9 27 -30 37 -48 11 -17 29
-34 40 -37 22 -6 37 8 20 18 -5 3 -10 10 -10 16 0 5 9 4 20 -3 19 -12 67 -95
59 -102 -2 -2 -20 -7 -39 -11 -31 -7 -33 -6 -21 8 16 20 9 31 -31 48 -18 7
-41 22 -50 34 -10 11 -17 15 -18 9 0 -7 18 -28 40 -48 22 -20 40 -40 40 -44 0
-15 30 -69 45 -82 7 -6 26 -15 41 -19 17 -4 36 -21 47 -42 27 -48 50 -128 43
-152 -3 -12 0 -27 6 -35 9 -10 9 -18 0 -33 -10 -16 -9 -28 8 -64 16 -34 19
-53 12 -78 -11 -43 -38 -43 -35 0 3 27 0 30 -19 25 -20 -5 -21 -3 -15 51 5 52
4 56 -18 61 -13 3 -31 3 -40 -1 -16 -6 -16 -4 -1 19 17 25 16 26 -14 36 -47
17 -38 34 15 26 43 -6 61 5 35 21 -5 3 -10 14 -10 24 0 10 -12 30 -26 45 -15
14 -22 26 -15 26 6 0 11 5 11 10 0 6 -17 10 -37 10 -31 0 -43 6 -66 35 -22 27
-24 35 -12 35 25 0 55 -19 55 -35 0 -8 7 -15 15 -15 27 0 16 20 -40 76 -38 38
-61 54 -73 50 -23 -7 -47 13 -56 47 -5 20 -3 27 9 27 12 0 13 4 2 28 -6 15
-20 36 -29 46 -38 42 29 57 75 18z m-993 -7 c0 -8 -7 -15 -15 -15 -9 0 -12 6
-9 15 4 8 10 15 15 15 5 0 9 -7 9 -15z m1112 -4 c11 -11 18 -25 16 -31 -2 -6
-16 3 -33 20 -31 33 -17 42 17 11z m88 -26 c0 -8 -4 -15 -10 -15 -5 0 -10 7
-10 15 0 8 5 15 10 15 6 0 10 -7 10 -15z m-2700 -35 c0 -5 -4 -10 -10 -10 -5
0 -10 5 -10 10 0 6 5 10 10 10 6 0 10 -4 10 -10z m3817 -62 c-12 -10 -17 -21
-12 -24 6 -2 9 -46 7 -114 -3 -75 0 -110 7 -110 6 0 11 -18 11 -40 0 -28 -4
-40 -14 -40 -11 0 -15 -20 -18 -85 -2 -47 -1 -85 2 -85 13 0 8 -49 -5 -60 -18
-15 -20 -40 -4 -40 7 0 9 -12 4 -37 -14 -74 -9 -117 17 -171 14 -29 23 -54 19
-56 -8 -5 -73 2 -79 9 -3 3 2 13 11 23 24 27 22 78 -5 96 -17 12 -19 18 -9 29
9 12 6 17 -18 27 -38 15 -51 7 -51 -35 0 -18 -6 -35 -13 -38 -8 -3 -21 -21
-30 -40 -14 -28 -15 -53 -10 -131 4 -67 9 -94 17 -86 14 14 26 12 26 -5 0 -8
4 -23 9 -33 13 -23 25 -73 22 -94 -1 -10 4 -18 12 -18 21 0 26 10 17 34 -4 13
-5 28 -1 34 10 16 79 12 85 -5 10 -24 26 -14 26 17 0 22 -4 28 -15 23 -13 -4
-15 2 -9 38 8 55 23 85 24 49 1 -27 21 -109 31 -125 4 -5 10 -56 14 -112 6
-90 5 -103 -9 -103 -8 0 -23 -12 -33 -27 -10 -16 -21 -31 -26 -34 -4 -3 -4
-31 1 -62 9 -59 -3 -97 -31 -97 -7 0 -23 -9 -36 -19 -23 -18 -25 -18 -56 3
-33 21 -33 22 -37 111 -3 93 3 138 16 117 12 -21 24 -13 36 23 14 41 7 55 -25
55 -16 0 -29 9 -39 28 -13 23 -15 24 -17 7 -1 -11 -5 0 -9 25 -5 25 -9 173 -9
329 -1 235 1 282 12 273 19 -16 88 -8 99 12 14 24 17 119 5 134 -7 8 -5 12 7
12 9 0 16 7 16 15 0 8 -4 15 -9 15 -4 0 -9 33 -9 73 -1 39 -2 88 -3 107 -3 74
4 128 17 123 12 -4 31 64 27 97 -2 12 6 15 32 12 l35 -4 -23 -20z m-1122 12
c3 -5 -1 -10 -10 -10 -9 0 -13 5 -10 10 3 6 8 10 10 10 2 0 7 -4 10 -10z
m1195 0 c0 -5 -2 -10 -4 -10 -3 0 -8 5 -11 10 -3 6 -1 10 4 10 6 0 11 -4 11
-10z m-4236 -235 c-4 -127 -2 -201 5 -214 7 -11 25 -22 44 -24 24 -3 20 -4
-13 -4 -25 0 -60 -3 -77 -7 -19 -4 -48 -3 -67 4 l-34 11 4 62 c3 34 9 96 14
137 4 41 9 98 10 125 1 59 15 75 73 91 23 6 43 12 44 13 1 0 -1 -87 -3 -194z
m3763 133 c-2 -13 -4 -3 -4 22 0 25 2 35 4 23 2 -13 2 -33 0 -45z m-3899 40
c-2 -6 -10 -14 -16 -16 -7 -2 -10 2 -6 12 7 18 28 22 22 4z m3170 0 c19 -19
14 -28 -13 -28 -24 0 -34 18 -18 33 9 10 17 9 31 -5z m-3223 -28 c-1 -11 -9
-28 -19 -38 -18 -16 -18 -16 -12 8 3 14 6 31 6 38 0 6 6 12 13 12 8 0 13 -9
12 -20z m335 -44 c0 -46 -3 -54 -21 -59 -15 -4 -19 -2 -15 10 3 8 6 35 6 59 0
32 4 44 15 44 11 0 15 -13 15 -54z m67 22 c-3 -7 -5 -2 -5 12 0 14 2 19 5 13
2 -7 2 -19 0 -25z m4418 -49 c-46 -64 -47 -66 -84 -109 -23 -27 -29 -30 -25
-13 3 12 17 31 30 44 13 12 24 28 24 35 0 13 82 105 89 98 2 -2 -13 -27 -34
-55z m-5255 21 c0 -17 -30 -70 -39 -70 -5 0 -11 -10 -14 -22 -4 -12 -8 -20
-11 -17 -8 8 19 94 34 106 19 15 30 16 30 3z m816 -32 c-19 -27 -21 -19 -4 18
7 14 14 21 16 15 2 -6 -4 -21 -12 -33z m3767 -97 c1 -61 -1 -111 -5 -111 -5 0
-8 53 -8 117 0 64 3 114 6 111 3 -3 6 -56 7 -117z m-4908 89 c9 -14 -7 -40
-19 -33 -8 5 -8 3 0 -8 9 -10 8 -28 -3 -69 -15 -56 -15 -211 0 -226 4 -4 20
-3 35 2 25 9 27 13 25 59 -2 35 0 46 8 38 12 -12 20 -78 13 -97 -7 -19 -84
-43 -92 -29 -4 6 -26 14 -50 18 l-44 7 6 52 c7 58 -8 37 -19 -26 -4 -25 -11
-38 -22 -38 -12 0 -14 7 -9 28 3 15 10 61 15 103 13 98 48 209 70 215 9 3 23
9 31 13 16 9 47 3 55 -9z m449 -42 c-3 -12 -7 -51 -8 -87 -1 -64 -9 -91 -25
-91 -4 0 -4 24 2 53 12 67 13 94 3 135 -8 32 -7 33 13 22 16 -8 20 -17 15 -32z
m4263 -60 c-2 -18 -4 -6 -4 27 0 33 2 48 4 33 2 -15 2 -42 0 -60z m-3346 -93
c3 -31 0 -50 -8 -52 -8 -3 -12 23 -15 87 -2 51 -1 94 2 97 6 5 16 -60 21 -132z
m67 113 c-2 -13 -7 -23 -13 -23 -5 0 -11 10 -13 23 -2 15 2 22 13 22 11 0 15
-7 13 -22z m2506 -3 c9 -14 12 -25 6 -25 -14 0 -50 37 -42 44 10 11 20 6 36
-19z m-2842 -17 c-8 -8 -9 -4 -5 13 4 13 8 18 11 10 2 -7 -1 -18 -6 -23z
m3399 3 c12 -11 18 -25 14 -31 -5 -8 -15 -5 -31 11 -13 12 -24 26 -24 31 0 14
20 9 41 -11z m-2934 -43 c-3 -8 -6 -5 -6 6 -1 11 2 17 5 13 3 -3 4 -12 1 -19z
m2908 12 c9 -14 -4 -52 -16 -45 -12 8 -12 55 0 55 6 0 13 -5 16 -10z m-3425
-41 c0 -5 -4 -9 -10 -9 -5 0 -10 7 -10 16 0 8 5 12 10 9 6 -3 10 -10 10 -16z
m3675 -233 c5 -185 4 -227 -7 -224 -15 5 -14 0 -18 249 -2 162 2 220 15 207 2
-2 6 -106 10 -232z m1155 195 c0 -5 -10 -11 -22 -15 -36 -9 -41 -7 -28 9 13
16 50 21 50 6z m-964 -64 c-10 -39 -11 -40 -14 -13 -5 39 7 84 17 67 4 -7 3
-31 -3 -54z m-3876 38 c0 -8 -4 -15 -10 -15 -5 0 -10 7 -10 15 0 8 5 15 10 15
6 0 10 -7 10 -15z m260 -4 c0 -8 -60 -41 -75 -41 -4 0 -2 7 5 15 7 8 21 15 31
15 10 0 21 5 24 10 8 12 15 13 15 1z m3680 0 c0 -5 -9 -7 -20 -4 -11 3 -20 7
-20 9 0 2 9 4 20 4 11 0 20 -4 20 -9z m-984 -12 c8 -14 -18 -31 -30 -19 -9 9
0 30 14 30 5 0 12 -5 16 -11z m-3324 -31 c-9 -9 -12 -7 -12 12 0 19 3 21 12
12 9 -9 9 -15 0 -24z m3819 6 c10 -13 10 -17 -1 -24 -10 -6 -13 -24 -11 -54 1
-28 -2 -46 -8 -46 -6 0 -11 19 -11 45 0 31 -5 47 -17 54 -14 8 -15 12 -4 25
17 20 35 20 52 0z m1436 10 c-3 -3 -12 -4 -19 -1 -8 3 -5 6 6 6 11 1 17 -2 13
-5z m68 -4 c3 -5 -1 -10 -9 -10 -9 0 -16 5 -16 10 0 6 4 10 9 10 6 0 13 -4 16
-10z m-5512 -35 c15 -13 27 -29 27 -35 0 -14 -47 -13 -56 1 -4 7 -21 9 -40 6
-40 -7 -42 -2 -12 30 27 29 46 29 81 -2z m3674 -52 c-3 -10 -5 -2 -5 17 0 19
2 27 5 18 2 -10 2 -26 0 -35z m759 -31 c-12 -11 -16 6 -9 39 l8 34 3 -33 c2
-19 1 -36 -2 -40z m-5109 11 c-18 -18 -130 -26 -124 -8 4 12 39 20 96 23 42 2
44 1 28 -15z m1070 2 c1 -5 -6 -25 -17 -42 -16 -26 -26 -33 -52 -33 -18 0 -50
-7 -73 -15 -40 -15 -261 -46 -269 -37 -7 7 16 55 38 80 20 22 26 24 101 18 43
-3 84 -1 90 4 36 29 174 49 182 25z m83 6 c0 -13 -29 -35 -37 -28 -7 8 15 37
28 37 5 0 9 -4 9 -9z m-1026 -12 c-6 -11 -74 -12 -74 -1 0 4 18 8 40 9 22 0
37 -3 34 -8z m546 -8 c0 -27 -27 -51 -57 -51 -14 0 -40 -7 -59 -16 -41 -19
-49 -15 -34 17 11 25 65 55 110 62 14 2 28 5 33 6 4 0 7 -8 7 -18z m2517 13
c-3 -3 -12 -4 -19 -1 -8 3 -5 6 6 6 11 1 17 -2 13 -5z m1053 -44 c8 -5 16 -28
17 -54 5 -75 -28 -53 -40 27 -6 38 -2 43 23 27z m-4055 -10 c3 -5 -1 -10 -10
-10 -9 0 -13 5 -10 10 3 6 8 10 10 10 2 0 7 -4 10 -10z m2790 0 c-3 -5 -15
-10 -26 -10 -10 0 -19 5 -19 10 0 6 12 10 26 10 14 0 23 -4 19 -10z m85 -12
c0 -7 -4 -19 -9 -26 -6 -10 -10 -7 -13 12 -4 18 -1 26 8 26 8 0 14 -6 14 -12z
m-300 -17 c0 -4 -11 -6 -25 -3 -14 2 -25 6 -25 8 0 2 11 4 25 4 14 0 25 -4 25
-9z m100 -19 c0 -9 -9 -23 -20 -30 -17 -10 -21 -10 -26 3 -7 18 12 45 32 45 8
0 14 -8 14 -18z m-1710 -1 c0 -13 -46 -41 -67 -41 -10 0 -29 -7 -41 -16 -25
-18 -36 -15 -27 7 12 33 135 78 135 50z m2806 -10 c50 -23 78 -75 78 -146 0
-80 -100 -274 -142 -276 -9 0 -30 -9 -47 -19 -67 -43 -88 -51 -118 -48 l-32 3
2 68 c1 58 -1 67 -17 67 -11 0 -20 -10 -24 -25 -6 -22 -26 -36 -26 -17 0 4
-12 8 -27 9 -15 0 -21 -2 -14 -6 18 -12 -41 -33 -89 -33 -30 1 -43 -4 -50 -19
-6 -10 -7 -19 -3 -19 4 0 1 -5 -7 -10 -8 -5 -32 -7 -52 -3 -34 5 -38 3 -39
-16 -1 -11 -2 -25 -3 -30 -2 -16 -44 -51 -61 -51 -8 0 -15 -6 -15 -14 0 -9
-15 -17 -40 -21 -22 -4 -40 -11 -40 -17 0 -6 -6 -6 -15 2 -9 8 -13 21 -9 36 3
13 2 24 -2 24 -29 -1 -53 -15 -56 -33 -4 -29 -20 -31 -48 -5 -14 13 -28 22
-32 21 -5 -2 -8 7 -8 20 0 13 -5 28 -11 34 -7 7 -13 27 -14 47 -2 29 2 36 22
41 14 3 33 3 43 0 11 -3 29 -1 41 6 21 11 22 12 5 25 -17 12 -17 13 8 20 15 3
45 4 67 1 28 -4 54 1 86 15 25 11 54 18 64 15 15 -4 19 0 19 24 0 19 5 29 15
29 8 0 15 7 15 15 0 8 -6 15 -14 15 -8 0 -16 4 -18 9 -1 5 -15 7 -29 4 -18 -3
-30 -15 -39 -38 -12 -30 -15 -32 -43 -24 -20 6 -33 5 -37 -1 -4 -6 -35 -10
-71 -9 -69 2 -119 -12 -119 -35 0 -8 -13 -16 -30 -18 -29 -4 -31 -3 -34 35 -1
6 -7 18 -13 25 -7 7 -13 33 -13 57 l0 43 -49 7 c-33 4 -55 2 -70 -7 -28 -17
-27 -28 4 -28 26 0 51 -32 39 -51 -7 -12 -68 -4 -128 17 -34 13 -42 12 -63 -2
l-25 -16 4 39 c3 37 2 38 -34 41 -27 2 -38 8 -39 20 0 9 -4 44 -8 77 -9 70 3
105 44 123 36 17 54 15 53 -5 -1 -10 2 -28 6 -40 8 -25 -3 -30 -22 -11 -17 17
-26 3 -13 -20 6 -12 11 -41 11 -66 0 -25 5 -46 10 -46 6 0 10 5 10 10 0 6 7
10 15 10 8 0 15 6 15 13 0 8 9 22 20 32 11 10 20 14 20 10 0 -5 14 10 32 33
33 43 57 57 38 23 -13 -26 -13 -44 2 -35 7 5 8 3 4 -5 -11 -16 13 -71 30 -71
8 0 14 5 14 10 0 6 -4 10 -10 10 -5 0 -10 8 -9 18 0 10 3 12 6 5 6 -15 33 -17
33 -3 0 5 6 7 14 4 8 -3 19 3 26 16 9 17 17 20 44 15 33 -7 66 12 66 36 0 6 5
7 10 4 6 -3 10 3 10 14 0 12 5 21 11 21 6 0 8 -7 5 -16 -5 -13 -2 -14 11 -8
10 4 56 9 103 10 47 2 99 6 115 9 54 10 215 13 221 4 3 -5 14 -9 26 -9 11 0
22 -8 25 -20 3 -11 11 -20 18 -20 7 0 15 -10 19 -22 4 -18 8 -20 18 -10 17 17
38 15 38 -4 0 -8 4 -13 9 -10 5 3 7 15 4 26 -4 15 0 20 16 20 11 0 21 5 21 10
0 11 33 13 66 4 17 -5 21 -12 18 -41 -3 -43 -13 -55 -21 -25 -10 38 -26 25
-19 -15 19 -105 18 -121 -2 -141 -70 -70 -35 -95 71 -53 16 6 35 11 43 11 16
0 19 -30 4 -48 -7 -9 -7 -9 2 -2 7 6 20 10 30 10 10 0 18 5 18 11 0 5 4 8 9 5
5 -3 11 4 14 15 3 12 10 18 16 14 7 -3 11 2 11 13 0 15 -5 19 -20 15 -18 -5
-20 0 -20 51 0 53 -2 58 -31 74 -17 9 -41 25 -53 35 -21 18 -21 18 11 12 25
-5 34 -2 43 14 14 27 37 27 45 1 3 -11 11 -20 17 -20 7 0 8 -19 3 -55 -4 -37
-3 -55 4 -55 6 0 11 -7 11 -16 0 -35 31 16 42 69 10 49 9 58 -12 101 -30 64
-74 84 -140 67 -25 -7 -49 -19 -53 -27 -10 -17 -40 -19 -35 -1 7 18 89 57 123
57 17 0 48 -9 71 -19z m-3336 -5 c0 -18 -20 -32 -50 -34 -14 -1 -63 -13 -110
-27 -95 -29 -240 -45 -240 -27 0 6 5 14 10 17 6 3 10 1 10 -4 0 -13 71 -14
102 -2 13 5 50 17 83 26 33 9 69 22 80 28 19 10 92 35 108 36 4 1 7 -5 7 -13z
m2090 -3 c0 -14 -36 -18 -44 -4 -8 12 0 17 24 17 11 0 20 -6 20 -13z m2961 -6
c-10 -9 -11 -8 -5 6 3 10 9 15 12 12 3 -3 0 -11 -7 -18z m-4706 -39 c-3 -8
-29 -14 -66 -16 -42 -2 -59 1 -54 8 4 6 15 8 26 5 11 -4 19 -2 19 4 0 6 18 11
40 11 27 0 38 -4 35 -12z m3185 -19 c0 -5 -4 -9 -10 -9 -5 0 -10 7 -10 16 0 8
5 12 10 9 6 -3 10 -10 10 -16z m-3355 1 c4 -6 -18 -10 -58 -10 -36 0 -80 -3
-98 -6 -24 -5 -31 -3 -24 4 9 10 44 15 142 20 17 1 35 -2 38 -8z m1285 -30
c11 18 25 6 17 -15 -4 -8 -17 -15 -31 -15 -18 0 -26 -6 -29 -22 -2 -13 -5 -4
-6 20 -1 40 0 42 19 30 17 -11 22 -10 30 2z m148 -24 c12 -4 22 -11 22 -16 0
-5 3 -17 7 -27 6 -16 5 -16 -10 -4 -9 7 -17 20 -17 28 0 9 -8 13 -20 11 -19
-3 -20 -1 -20 25 0 8 2 9 8 1 4 -6 17 -14 30 -18z m177 -26 c12 -13 10 -15
-16 -15 -33 0 -34 2 -17 42 10 25 12 26 16 8 2 -11 10 -27 17 -35z m113 9
c-16 -10 -33 5 -23 21 5 8 11 8 21 -1 12 -10 12 -14 2 -20z m-360 -4 c-8 -18
-19 -25 -40 -25 -18 0 -28 5 -28 15 0 9 6 12 15 9 9 -4 15 0 15 10 0 10 9 16
25 16 23 0 24 -2 13 -25z m157 16 c3 -5 1 -12 -4 -16 -6 -3 -7 -13 -4 -21 5
-14 3 -15 -16 -5 -17 10 -19 15 -11 31 12 22 25 26 35 11z m125 5 c0 -3 -4 -8
-10 -11 -5 -3 -10 -1 -10 4 0 6 5 11 10 11 6 0 10 -2 10 -4z m-1517 -12 c3 -4
2 -15 -4 -26 -6 -11 -9 -21 -7 -23 2 -2 53 8 113 21 62 14 123 22 140 19 17
-3 38 -6 47 -6 14 0 12 -6 -10 -28 -25 -26 -57 -40 -108 -47 -11 -1 -38 -7
-60 -13 -22 -6 -66 -12 -99 -13 -83 -3 -118 -25 -120 -75 -2 -55 -30 -102 -60
-103 -12 0 -14 60 -2 77 4 6 3 14 -2 17 -19 12 -40 -7 -43 -37 -2 -27 -8 -33
-30 -35 -32 -4 -39 17 -8 25 19 5 19 6 -5 25 -26 20 -105 23 -95 3 3 -5 18 -9
33 -7 23 2 28 -1 25 -15 -2 -10 -12 -18 -23 -18 -22 0 -39 -20 -31 -34 3 -5
-1 -12 -10 -15 -23 -9 -124 -7 -122 2 0 4 -2 15 -6 24 -5 12 3 34 24 67 28 43
36 49 52 40 10 -5 22 -7 27 -4 5 3 59 6 121 7 67 1 117 6 127 13 13 10 6 13
-43 17 -71 6 -169 3 -206 -7 -23 -6 -28 -4 -28 10 0 20 46 104 58 106 4 1 27
3 52 5 25 2 86 10 135 17 102 16 159 20 168 11z m1543 -11 c0 -11 6 -17 17
-17 9 1 17 -2 17 -7 0 -5 -9 -9 -19 -9 -20 0 -35 25 -25 41 8 14 12 11 10 -8z
m-987 -2 c20 -13 6 -42 -16 -34 -21 8 -34 24 -27 35 7 10 25 10 43 -1z m-179
-46 c6 -4 21 5 33 19 25 29 52 34 64 12 4 -8 17 -15 28 -17 23 -5 33 -45 16
-62 -7 -7 -25 -12 -41 -13 -49 -3 -80 -14 -80 -29 0 -8 -6 -15 -12 -15 -7 -1
-3 -6 10 -13 15 -9 19 -16 12 -23 -16 -16 76 -40 95 -24 12 10 16 9 21 -4 12
-31 -3 -44 -58 -48 -47 -3 -56 -1 -79 23 -27 29 -83 49 -138 49 -33 0 -34 1
-28 36 7 43 8 45 36 47 18 1 26 10 19 20 -6 10 26 47 40 45 10 -2 16 3 14 11
-5 23 22 33 30 12 4 -11 12 -22 18 -26z m910 24 c0 -5 -4 -9 -10 -9 -5 0 -10
7 -10 16 0 8 5 12 10 9 6 -3 10 -10 10 -16z m2230 -7 c1 -16 1 -16 11 1 13 23
27 22 50 -5 26 -32 24 -36 -21 -36 -35 -1 -42 3 -50 24 -13 33 -13 47 0 39 6
-3 10 -14 10 -23z m-4570 -12 c0 -5 -2 -10 -4 -10 -3 0 -8 5 -11 10 -3 6 -1
10 4 10 6 0 11 -4 11 -10z m640 2 c0 -4 -7 -18 -16 -31 -15 -21 -18 -22 -26
-6 -7 12 -5 20 9 30 20 16 33 19 33 7z m5535 -81 c4 -35 2 -57 -5 -67 -18 -21
-26 -17 -41 19 -7 17 -23 45 -36 60 -26 32 -30 49 -10 41 7 -2 22 5 32 16 18
20 19 20 36 1 9 -10 20 -42 24 -70z m-5620 69 c3 -5 -1 -10 -10 -10 -9 0 -13
5 -10 10 3 6 8 10 10 10 2 0 7 -4 10 -10z m-35 -29 l0 -29 -82 -7 c-46 -4 -89
-12 -96 -18 -14 -11 -25 -4 -29 21 -3 21 74 50 147 55 25 2 48 4 53 5 4 1 7
-11 7 -27z m5763 9 c3 -12 14 -20 26 -20 27 0 28 -35 2 -50 -21 -11 -37 2 -26
20 3 5 -5 21 -19 33 -25 23 -25 37 0 37 6 0 14 -9 17 -20z m-1643 -40 c0 -5
-9 -10 -21 -10 -13 0 -23 -8 -26 -20 -7 -28 -50 -37 -82 -17 -41 25 -37 37 11
38 24 1 54 5 68 9 36 11 50 11 50 0z m780 1 c0 -6 -4 -13 -10 -16 -5 -3 -10
-17 -10 -31 0 -24 -23 -34 -35 -14 -4 6 -11 8 -16 4 -14 -8 -39 15 -39 36 0
10 8 21 18 23 32 9 92 7 92 -2z m-4845 -40 c-3 -12 -10 -21 -15 -21 -5 0 -4
11 2 25 13 29 23 26 13 -4z m999 20 c-13 -12 -104 -22 -104 -12 0 13 18 18 69
19 24 1 40 -2 35 -7z m-1054 -30 c0 -5 -6 -12 -12 -14 -8 -4 -4 -8 10 -12 16
-6 22 -15 22 -37 0 -51 -36 -66 -92 -38 -23 11 -35 11 -67 0 -29 -9 -43 -10
-60 -1 -62 33 27 84 192 110 4 0 7 -3 7 -8z m3510 5 c0 -3 -4 -8 -10 -11 -5
-3 -10 -1 -10 4 0 6 5 11 10 11 6 0 10 -2 10 -4z m250 -14 c0 -13 -12 -22 -22
-16 -10 6 -1 24 13 24 5 0 9 -4 9 -8z m-3282 -24 c-4 -27 -28 -36 -28 -10 0
20 8 32 22 32 5 0 8 -10 6 -22z m-781 -61 c-6 -13 -21 -28 -33 -34 -19 -9 -21
-7 -16 11 7 30 22 46 42 46 15 0 16 -4 7 -23z m953 -33 c8 -8 7 -16 -5 -27
-10 -10 -20 -51 -28 -114 l-12 -98 -38 0 -39 0 -2 90 c-1 63 -7 100 -20 123
-16 32 -16 35 -1 46 20 14 126 -1 145 -20z m1647 14 c-3 -8 -6 -5 -6 6 -1 11
2 17 5 13 3 -3 4 -12 1 -19z m-1522 -25 c-4 -16 -12 -34 -18 -42 -15 -17 -10
-49 10 -69 13 -14 13 -16 0 -24 -19 -10 -50 -99 -42 -120 4 -11 -2 -17 -19
-22 -13 -3 -27 -15 -31 -25 -3 -11 -12 -24 -20 -31 -11 -9 -13 1 -9 67 9 139
21 200 44 223 11 11 25 32 30 45 7 18 17 25 36 25 24 0 25 -3 19 -27z m57 -8
c-16 -34 -42 -48 -42 -22 0 19 29 57 44 57 11 0 10 -7 -2 -35z m1502 -8 c7 -6
4 -7 -6 -3 -20 6 -24 -14 -7 -31 13 -13 5 -43 -11 -43 -7 0 -9 8 -5 19 3 10 0
31 -7 46 -10 22 -9 28 3 35 9 6 15 5 18 -3 2 -7 9 -16 15 -20z m3345 7 c15 9
21 -21 7 -39 -14 -20 -28 -8 -41 35 -7 22 -6 23 8 12 9 -8 20 -11 26 -8z
m-5699 -3 c0 -6 -4 -13 -10 -16 -5 -3 -10 1 -10 9 0 9 5 16 10 16 6 0 10 -4
10 -9z m1440 -7 c0 -2 -9 -4 -20 -4 -11 0 -20 4 -20 9 0 5 9 7 20 4 11 -3 20
-7 20 -9z m543 9 c-7 -2 -21 -2 -30 0 -10 3 -4 5 12 5 17 0 24 -2 18 -5z m254
-9 c44 -5 70 -24 34 -24 -18 0 -21 -6 -21 -41 0 -41 -19 -71 -47 -75 -8 -2
-20 -9 -26 -17 -14 -18 -125 -28 -130 -12 -3 6 -4 35 -3 65 1 54 1 55 33 58
31 3 31 3 26 -37 -4 -27 -2 -41 6 -41 6 0 11 -7 11 -15 0 -19 11 -19 35 -1 16
12 17 17 6 44 -13 31 -9 63 6 61 18 -3 33 2 33 10 0 5 -40 12 -90 15 -49 4
-90 11 -90 16 0 8 134 4 217 -6z m-2583 -6 c-5 -8 -2 -9 12 -3 10 4 29 10 41
12 22 5 23 2 22 -53 0 -33 1 -68 3 -79 3 -18 -3 -20 -59 -21 -35 -1 -61 1 -58
6 2 4 0 22 -5 41 -8 28 -6 39 15 71 14 21 28 38 31 38 3 0 2 -5 -2 -12z m658
-50 c3 -35 2 -67 -2 -73 -11 -14 -14 -67 -5 -87 8 -20 -12 -183 -26 -209 -5
-10 -23 -20 -41 -24 -18 -4 -40 -8 -48 -11 -12 -3 -15 4 -14 32 l2 35 -22 -21
c-11 -12 -49 -39 -84 -61 -58 -36 -63 -38 -56 -17 8 26 85 141 97 147 12 5 57
51 57 58 0 4 10 61 22 128 25 141 37 165 83 165 l33 0 4 -62z m39 25 c-12 -20
-14 -14 -5 12 4 9 9 14 11 11 3 -2 0 -13 -6 -23z m679 0 c-1 -39 -13 -50 -56
-51 -24 -1 -44 0 -44 4 0 12 32 36 58 44 36 11 42 11 42 3z m1447 -10 c42 -6
56 -17 31 -25 -20 -6 -138 13 -138 22 0 11 31 19 50 13 8 -2 33 -7 57 -10z
m-2507 -13 c0 -5 -4 -10 -10 -10 -5 0 -10 5 -10 10 0 6 5 10 10 10 6 0 10 -4
10 -10z m830 -10 c0 -5 -4 -10 -10 -10 -5 0 -10 5 -10 10 0 6 5 10 10 10 6 0
10 -4 10 -10z m2990 0 c0 -5 -5 -10 -11 -10 -5 0 -7 5 -4 10 3 6 8 10 11 10 2
0 4 -4 4 -10z m-96 -16 c9 -3 16 -15 16 -27 0 -19 -1 -20 -20 -2 -30 27 -28
41 4 29z m-133 -44 c5 0 3 -14 -6 -30 -9 -17 -17 -60 -20 -98 -2 -37 -4 -69
-5 -72 0 -3 -7 3 -14 13 -13 16 -14 16 -19 -4 -5 -20 -8 -21 -23 -8 -16 13
-17 12 -10 -14 4 -19 3 -27 -4 -22 -6 4 -15 -7 -21 -25 -9 -24 -17 -30 -33
-28 -13 2 -22 11 -24 26 -2 12 -10 22 -18 22 -19 0 -18 15 2 35 11 10 15 28
12 54 -2 22 0 37 4 35 3 -2 9 9 13 26 4 17 10 28 15 25 4 -3 10 5 13 16 6 24
38 23 44 -1 4 -13 3 -13 -6 0 -6 8 -11 10 -11 4 0 -16 10 -23 26 -17 9 3 12
13 9 23 -4 13 1 20 15 25 11 3 20 11 20 17 0 5 7 7 16 4 9 -3 20 -6 25 -6z
m-2548 -52 c4 -29 7 -82 7 -118 0 -36 4 -82 9 -103 9 -36 8 -38 -28 -54 -20
-10 -42 -23 -49 -30 -7 -7 -15 -13 -17 -13 -5 0 -4 353 0 360 2 3 19 7 38 8
l34 2 6 -52z m-173 16 c0 -8 -7 -14 -15 -14 -8 0 -15 9 -15 20 0 13 5 18 15
14 8 -4 15 -12 15 -20z m-514 -31 c-10 -10 -19 5 -10 18 6 11 8 11 12 0 2 -7
1 -15 -2 -18z m2034 17 c0 -5 -4 -10 -10 -10 -5 0 -10 5 -10 10 0 6 5 10 10
10 6 0 10 -4 10 -10z m57 4 c-3 -3 -12 -4 -19 -1 -8 3 -5 6 6 6 11 1 17 -2 13
-5z m2681 -20 c6 -2 12 -11 12 -20 0 -10 8 -26 17 -36 12 -13 13 -22 6 -29
-17 -17 -50 -1 -57 26 -4 14 -17 32 -31 41 -44 28 -14 39 53 18z m-5337 -150
c-2 -93 1 -165 7 -178 18 -37 22 -55 15 -72 -4 -12 -11 -6 -24 23 -19 41 -25
187 -13 316 11 117 19 72 15 -89z m3860 146 c18 0 8 -33 -22 -76 -18 -24 -36
-41 -42 -37 -12 7 -1 91 15 110 6 8 18 11 25 8 8 -3 19 -5 24 -5z m-2785 -110
c-3 -59 -2 -119 4 -146 11 -47 6 -84 -10 -84 -5 0 -8 13 -8 28 1 15 -5 51 -11
80 -7 28 -11 57 -8 64 2 7 0 24 -5 38 -6 15 -5 32 1 45 6 11 15 32 21 48 18
50 23 28 16 -73z m797 60 c4 -4 10 -44 12 -89 4 -62 2 -82 -7 -79 -7 3 -12 15
-13 29 0 13 -4 24 -10 24 -5 0 -9 -19 -8 -42 1 -37 -1 -42 -25 -46 -15 -3 -31
1 -39 9 -8 8 -24 14 -37 14 -32 0 -50 56 -41 127 5 43 11 56 28 62 24 9 127 3
140 -9z m3469 -83 c-5 -28 17 -56 58 -77 40 -20 53 -40 26 -40 -8 0 -18 5 -21
10 -4 6 -10 8 -15 5 -5 -3 -11 -1 -15 5 -3 5 -15 10 -25 10 -11 0 -21 9 -25
23 -3 12 -11 32 -18 45 -9 19 -8 25 3 32 20 13 36 6 32 -13z m-4462 -32 c0
-12 -59 -136 -69 -145 -3 -3 -11 -14 -17 -24 -13 -25 -40 -35 -31 -12 4 10 1
16 -7 16 -8 0 -16 -7 -20 -15 -9 -25 -29 -18 -21 8 3 12 8 38 10 57 2 32 30
118 41 129 2 3 23 8 47 11 43 6 67 -3 67 -25z m1080 9 c0 -16 -16 -19 -25 -4
-8 13 4 32 16 25 5 -4 9 -13 9 -21z m733 11 c26 1 47 -2 47 -7 0 -5 10 -18 22
-27 11 -10 18 -23 15 -28 -10 -16 -96 -13 -90 3 7 18 -18 29 -28 13 -5 -8 -12
-26 -15 -41 -10 -46 -24 -21 -24 44 0 47 3 58 13 50 6 -6 33 -9 60 -7z m-173
-69 c0 -34 -5 -58 -14 -65 -12 -10 -14 -5 -11 31 1 24 3 56 4 71 2 51 21 17
21 -37z m-121 2 l-1 -43 -8 35 c-8 32 -6 50 6 50 2 0 4 -19 3 -42z m3551 17
c0 -8 9 -15 20 -15 25 0 25 -9 3 -26 -17 -13 -17 -15 0 -28 9 -7 17 -20 17
-29 0 -9 5 -19 10 -22 6 -3 10 -10 10 -16 0 -11 -40 -13 -40 -1 -1 23 -18 34
-38 23 -17 -9 -20 -17 -15 -47 5 -28 3 -36 -7 -32 -8 2 -17 18 -22 34 -9 33
-34 55 -54 47 -9 -3 -14 2 -14 15 0 11 -7 35 -15 55 -16 40 -7 51 33 36 15 -6
22 -17 22 -34 0 -16 4 -24 11 -20 6 4 8 14 4 22 -3 9 2 24 11 34 21 23 64 25
64 4z m-1215 -20 c0 -26 -21 -30 -28 -6 -2 11 -2 22 1 26 11 10 27 -2 27 -20z
m1055 -61 c0 -36 -5 -74 -10 -85 -13 -23 -40 -25 -40 -4 0 9 -8 19 -17 23 -18
7 -21 13 -30 59 -6 28 40 73 73 73 23 0 24 -3 24 -66z m-4775 13 c13 -84 -3
-135 -29 -94 -7 10 -4 20 8 32 11 12 15 25 11 39 -15 47 -17 66 -7 66 6 0 14
-19 17 -43z m1228 -3 c-18 -28 -18 -28 -21 -6 -4 28 17 57 31 43 5 -5 2 -20
-10 -37z m-285 14 c17 -17 15 -28 -5 -28 -26 0 -47 16 -39 29 9 14 29 14 44
-1z m468 -53 c11 -27 12 -40 4 -56 -7 -12 -8 -25 -2 -32 10 -15 14 -54 7 -84
-4 -16 -12 -23 -28 -22 -21 0 -21 1 -2 8 18 7 17 9 -10 27 -25 16 -61 20 -74
8 -2 -2 7 -14 19 -27 13 -13 28 -39 34 -58 6 -19 22 -39 36 -46 14 -7 25 -18
25 -25 -1 -7 13 -33 30 -58 52 -77 69 -130 41 -130 -7 0 -19 -7 -26 -15 -6 -8
-15 -14 -18 -13 -13 4 -68 -30 -98 -59 -82 -80 -149 -168 -209 -273 -27 -47
-71 -123 -97 -169 -48 -83 -88 -194 -74 -208 15 -16 35 29 53 120 6 30 11 31
65 17 33 -10 37 -14 40 -48 l3 -37 37 72 c122 237 369 585 412 580 11 -1 21
-6 23 -12 1 -5 -28 -50 -66 -100 -151 -195 -301 -438 -362 -584 -17 -41 -39
-86 -49 -100 -9 -14 -26 -39 -36 -56 l-19 -30 -5 49 c-5 47 -7 50 -40 59 -19
5 -40 13 -46 18 -6 5 -18 7 -27 3 -23 -8 -41 57 -33 120 10 75 33 142 80 225
65 116 171 272 221 324 25 26 45 50 45 52 0 3 -15 2 -32 -1 -56 -10 -141 -55
-185 -97 -24 -23 -45 -38 -48 -36 -7 8 82 94 113 109 40 19 106 53 111 57 2 1
-4 11 -13 22 -16 18 -16 19 15 16 17 -1 35 -8 40 -16 5 -8 9 -10 9 -5 0 5 7 3
15 -4 9 -7 18 -10 22 -6 8 8 -46 66 -62 66 -6 0 -21 14 -34 30 -18 25 -25 29
-41 20 -16 -8 -20 -8 -20 4 0 8 -4 16 -9 18 -12 4 -2 58 10 58 5 0 9 -16 9
-35 0 -34 12 -46 25 -24 5 7 14 4 29 -8 43 -38 56 -46 56 -34 0 18 -81 92
-116 107 -21 9 -36 25 -43 45 -14 42 -14 42 8 36 17 -4 18 -2 9 13 -16 25 -69
54 -95 52 -20 -1 -22 3 -20 29 2 25 10 35 44 54 39 20 41 23 25 38 -15 15 -14
18 3 35 18 16 21 17 37 3 21 -18 24 -41 6 -41 -42 0 111 -63 160 -66 28 -1 28
2 -4 31 -20 19 -23 25 -11 25 9 0 20 7 25 17 15 26 44 9 36 -21 -8 -32 1 -45
27 -39 17 5 20 12 17 46 -3 44 -32 73 -47 48 -5 -8 -11 -9 -15 -3 -8 13 20 36
34 27 5 -3 13 1 16 9 10 26 24 19 40 -19z m-141 7 c0 -18 -20 -15 -23 4 -3 10
1 15 10 12 7 -3 13 -10 13 -16z m3215 -2 c0 -6 -28 -36 -62 -68 -34 -31 -70
-67 -82 -79 -14 -16 -31 -23 -58 -23 -42 0 -48 9 -18 28 12 7 18 17 15 21 -5
10 118 95 153 106 12 3 22 11 22 16 0 5 7 9 15 9 8 0 15 -5 15 -10z m139 -84
c17 -68 15 -76 -19 -76 -32 0 -37 -9 -18 -28 13 -13 13 -13 -22 -17 -14 -2
-37 -6 -52 -9 -37 -8 -36 2 2 15 37 13 38 26 5 35 -14 3 -25 10 -25 14 0 14
91 110 105 110 7 0 18 -20 24 -44z m-4559 24 c0 -5 -4 -10 -10 -10 -5 0 -10 5
-10 10 0 6 5 10 10 10 6 0 10 -4 10 -10z m-95 -39 c-3 -12 -11 -21 -16 -21
-10 0 -12 43 -2 54 12 12 25 -11 18 -33z m3265 24 c0 -8 -2 -15 -4 -15 -2 0
-6 7 -10 15 -3 8 -1 15 4 15 6 0 10 -7 10 -15z m-3486 -21 c6 -17 -33 -41 -43
-26 -3 5 -17 12 -31 14 -24 4 -24 5 9 20 38 17 56 15 65 -8z m-658 0 c-3 -9
-6 -20 -6 -25 0 -5 -4 -9 -10 -9 -11 0 -14 33 -3 43 12 13 25 7 19 -9z m347
-11 c-7 -2 -19 -2 -25 0 -7 3 -2 5 12 5 14 0 19 -2 13 -5z m101 -5 c-15 -7
-28 -7 -40 1 -16 9 -12 10 21 10 35 0 37 -2 19 -11z m286 8 c0 -3 -4 -8 -10
-11 -5 -3 -10 -1 -10 4 0 6 5 11 10 11 6 0 10 -2 10 -4z m4157 -276 c0 -151 0
-152 -7 -55 -4 55 -7 154 -7 220 0 104 1 111 7 55 4 -36 7 -135 7 -220z
m-4767 260 c0 -5 -15 -9 -32 -9 l-33 1 30 8 c17 4 31 8 33 9 1 0 2 -3 2 -9z
m67 4 c-3 -3 -12 -4 -19 -1 -8 3 -5 6 6 6 11 1 17 -2 13 -5z m40 0 c-3 -3 -12
-4 -19 -1 -8 3 -5 6 6 6 11 1 17 -2 13 -5z m470 0 c-3 -3 -12 -4 -19 -1 -8 3
-5 6 6 6 11 1 17 -2 13 -5z m79 -11 c-2 -9 -8 -19 -15 -21 -10 -3 -10 0 -2 17
14 25 20 27 17 4z m-151 -25 c55 -6 109 -11 120 -10 27 0 168 -28 180 -37 6
-4 62 -23 125 -41 63 -18 167 -51 230 -73 63 -22 127 -42 143 -44 15 -3 27 -9
27 -14 0 -5 6 -6 13 -4 23 9 40 -10 29 -32 -9 -15 -23 -20 -61 -22 -31 -1 -51
3 -51 9 0 6 8 9 18 6 9 -3 33 -1 52 4 43 11 -234 3 -360 -11 -47 -5 -107 -9
-133 -9 -30 0 -46 -4 -42 -10 3 -5 26 -10 51 -10 41 0 57 -11 35 -24 -5 -4
-41 -2 -80 4 -45 6 -79 6 -96 0 -33 -13 -50 -5 -51 23 -2 23 1 24 130 35 72 6
142 15 156 20 l25 10 -30 12 c-16 6 -44 22 -62 36 -17 13 -38 24 -47 24 -8 0
-18 5 -21 10 -3 6 -30 10 -58 10 -37 0 -48 3 -37 10 11 7 4 10 -25 10 -22 0
-49 6 -60 14 -45 31 -171 64 -262 69 -51 2 -93 1 -95 -3 -4 -10 -198 36 -212
50 -13 14 285 6 449 -12z m5135 -11 c0 -8 -3 -17 -7 -20 -9 -9 -34 13 -27 24
8 14 34 11 34 -4z m-5787 -4 c-7 -2 -21 -2 -30 0 -10 3 -4 5 12 5 17 0 24 -2
18 -5z m1173 -4 c10 -17 -13 -36 -27 -22 -12 12 -4 33 11 33 5 0 12 -5 16 -11z
m504 1 c0 -5 -4 -10 -10 -10 -5 0 -10 5 -10 10 0 6 5 10 10 10 6 0 10 -4 10
-10z m226 -1 c3 -5 -4 -9 -14 -9 -11 0 -22 -9 -25 -20 -3 -11 -14 -20 -24 -20
-11 0 -34 -11 -53 -25 -48 -36 -62 -33 -58 12 2 28 10 40 33 54 32 18 131 24
141 8z m-1729 -5 c-3 -3 -12 -4 -19 -1 -8 3 -5 6 6 6 11 1 17 -2 13 -5z m5507
-10 c9 -25 -2 -34 -42 -34 -26 0 -41 6 -49 19 -11 18 -9 20 25 24 20 2 42 4
48 5 7 1 15 -5 18 -14z m-5664 -30 c0 -2 -7 -4 -15 -4 -8 0 -15 4 -15 10 0 5
7 7 15 4 8 -4 15 -8 15 -10z m1700 6 c0 -5 -4 -10 -10 -10 -5 0 -10 5 -10 10
0 6 5 10 10 10 6 0 10 -4 10 -10z m2665 -1 c4 -6 13 -8 21 -5 7 3 16 1 20 -5
4 -7 -6 -9 -27 -7 -18 2 -34 9 -37 16 -5 15 14 16 23 1z m791 -9 c-17 -6 -18
-7 -3 -13 9 -3 19 -2 22 3 4 6 15 10 27 10 16 0 19 -5 14 -22 -3 -13 -6 -31
-6 -40 0 -28 -26 -21 -40 11 -11 28 -15 29 -62 27 l-50 -2 25 22 c18 15 33 20
58 16 27 -4 30 -6 15 -12z m234 2 c0 -4 -5 -13 -12 -20 -6 -6 -10 -14 -7 -16
9 -10 209 -8 221 1 16 12 78 15 78 4 0 -5 -7 -14 -15 -21 -8 -7 -15 -21 -15
-31 0 -23 -13 -26 -145 -34 -103 -6 -112 -5 -138 15 -33 26 -33 29 -4 74 21
33 37 45 37 28z m-3470 -12 c0 -5 -2 -10 -4 -10 -3 0 -8 5 -11 10 -3 6 -1 10
4 10 6 0 11 -4 11 -10z m2520 -30 c11 0 19 -36 11 -49 -5 -7 -15 0 -29 19 -26
35 -28 44 -6 36 9 -3 19 -6 24 -6z m674 -19 c28 -11 9 -18 -48 -19 -34 0 -54
-5 -62 -16 -13 -19 -34 -21 -34 -4 0 6 7 20 17 30 17 19 89 24 127 9z m-699
-51 c-3 -5 -11 -10 -16 -10 -6 0 -7 5 -4 10 3 6 11 10 16 10 6 0 7 -4 4 -10z
m145 -108 c0 -5 -13 -7 -30 -4 -16 2 -30 6 -30 8 0 2 14 4 30 4 17 0 30 -4 30
-8z m-3090 -32 c0 -5 -4 -10 -9 -10 -5 0 -12 -10 -15 -22 l-6 -23 -21 24 c-15
19 -17 26 -7 32 18 12 58 11 58 -1z m-123 -146 c14 -29 2 -64 -21 -64 -12 0
-26 41 -26 76 0 24 34 15 47 -12z m-367 12 c0 -11 -19 -15 -25 -6 -3 5 1 10 9
10 9 0 16 -2 16 -4z m2681 -29 c-13 -13 -26 -3 -16 12 3 6 11 8 17 5 6 -4 6
-10 -1 -17z m-2421 -35 c0 -4 -9 -8 -21 -9 -17 -2 -18 1 -9 12 12 14 30 12 30
-3z m-1530 -67 c0 -8 -4 -15 -10 -15 -5 0 -10 7 -10 15 0 8 5 15 10 15 6 0 10
-7 10 -15z m2150 -30 c-7 -9 -15 -13 -17 -11 -7 7 7 26 19 26 6 0 6 -6 -2 -15z
m-540 -35 c0 -5 -19 -9 -42 -9 -40 1 -41 2 -13 9 44 11 55 11 55 0z m454 -19
c8 -12 -16 -38 -43 -46 -16 -5 -22 -3 -19 5 2 6 8 11 13 10 5 -1 12 8 17 19 8
22 23 27 32 12z m-617 -34 c-7 -21 -32 -13 -35 11 -3 21 -1 22 18 12 12 -6 19
-17 17 -23z m-50 -22 c0 -24 -4 -42 -9 -39 -4 3 -8 12 -8 20 0 8 -7 17 -15 20
-8 4 -15 12 -15 20 0 20 18 17 23 -3 4 -15 6 -15 12 5 10 31 12 28 12 -23z
m563 25 c0 -5 -4 -10 -10 -10 -5 0 -10 5 -10 10 0 6 5 10 10 10 6 0 10 -4 10
-10z m-49 -23 c-6 -6 -11 -20 -11 -30 0 -13 -5 -17 -15 -13 -9 3 -20 -3 -27
-14 -7 -11 -21 -20 -31 -20 -10 0 -26 -4 -36 -10 -14 -7 -23 -4 -40 14 -15 16
-32 23 -52 21 -37 -3 -48 -13 -23 -21 54 -17 73 -27 69 -35 -3 -4 -11 -6 -18
-4 -7 2 -25 6 -42 10 -24 5 -28 4 -17 -6 6 -7 12 -17 12 -23 0 -6 -5 -5 -11 1
-6 6 -18 9 -25 6 -8 -3 -14 0 -14 6 0 6 -10 11 -22 11 -21 0 -21 0 -2 -15 19
-15 18 -16 -26 -21 -29 -3 -96 -27 -107 -38 -4 -4 3 -9 15 -13 25 -6 30 -23 6
-23 -11 0 -14 -5 -10 -16 3 -9 6 -23 6 -31 0 -13 8 -14 40 -9 33 5 40 3 40
-10 0 -17 -8 -17 -98 2 -21 4 -43 2 -58 -6 -13 -8 -27 -10 -31 -7 -3 4 1 7 10
7 9 0 17 7 17 15 0 12 -4 13 -19 5 -31 -16 -72 -13 -65 5 5 11 -1 15 -18 15
-32 0 -88 -19 -88 -31 0 -4 -17 -16 -37 -26 -47 -22 -143 -115 -143 -140 -1
-16 -3 -15 -20 6 -11 13 -20 32 -20 42 0 19 -12 23 -57 19 -17 -1 -23 4 -23
19 0 17 6 21 29 21 42 0 81 17 81 35 0 8 5 15 10 15 6 0 10 7 10 15 0 9 7 18
15 21 8 4 15 14 15 24 0 10 9 20 20 23 11 3 20 14 20 24 0 24 55 87 69 79 19
-12 61 5 61 26 0 15 5 18 20 13 13 -4 20 -2 20 6 0 8 6 7 18 -4 10 -9 42 -22
72 -28 30 -7 62 -19 72 -26 9 -8 29 -13 45 -11 l28 4 -25 11 c-25 12 -25 12
-2 12 12 1 34 8 47 17 17 11 34 14 57 9 18 -4 30 -4 26 0 -14 14 11 43 32 38
11 -3 26 2 36 11 13 14 28 15 75 10 58 -6 119 7 119 27 0 5 7 6 16 2 11 -4 12
-9 5 -16z m-1953 -14 c-10 -2 -26 -2 -35 0 -10 3 -2 5 17 5 19 0 27 -2 18 -5z
m57 -13 c3 -5 1 -10 -4 -10 -6 0 -11 5 -11 10 0 6 2 10 4 10 3 0 8 -4 11 -10z
m5375 -51 c0 -11 -4 -17 -10 -14 -5 3 -10 15 -10 26 0 11 5 17 10 14 6 -3 10
-15 10 -26z m-2143 -86 c-3 -10 -5 -4 -5 12 0 17 2 24 5 18 2 -7 2 -21 0 -30z
m-1299 15 c-3 -7 -12 -13 -21 -12 -9 0 -30 1 -47 2 -51 3 -33 22 21 22 36 0
49 -4 47 -12z m1286 -100 c-4 -24 -11 -47 -16 -53 -6 -6 -7 0 -4 18 3 15 8 38
11 52 9 42 16 28 9 -17z m-2641 -8 c-7 -28 -22 -35 -30 -15 -3 10 0 21 8 26
22 14 28 11 22 -11z m774 -47 c3 -7 -7 -11 -26 -11 -31 1 -38 8 -24 22 11 10
46 3 50 -11z m-117 -52 c0 -10 -24 -21 -43 -21 -7 0 -3 7 7 15 22 17 36 19 36
6z m1990 -11 c0 -5 -4 -10 -10 -10 -5 0 -10 5 -10 10 0 6 5 10 10 10 6 0 10
-4 10 -10z m490 -136 c-17 -27 -38 -73 -46 -101 -8 -29 -20 -56 -26 -59 -15
-10 0 51 28 114 13 29 24 56 24 59 0 13 45 54 48 45 2 -6 -11 -32 -28 -58z
m45 -21 c-25 -48 -45 -93 -45 -100 0 -6 -5 -15 -12 -19 -27 -17 12 95 60 169
45 68 43 38 -3 -50z m-1180 47 c-9 -29 14 -34 25 -6 5 14 14 26 19 26 24 0 43
-82 22 -94 -5 -3 -11 4 -14 16 -6 21 -7 21 -25 5 -15 -14 -21 -15 -29 -5 -13
16 -24 74 -16 82 11 11 24 -6 18 -24z m-391 7 c16 -12 17 -17 6 -36 -9 -18
-17 -21 -38 -16 -35 8 -56 30 -49 49 8 20 56 21 81 3z m993 -44 c-3 -10 -5 -2
-5 17 0 19 2 27 5 18 2 -10 2 -26 0 -35z m1591 -90 l-3 -118 -64 -3 c-35 -2
-67 1 -72 5 -4 4 -9 55 -11 113 l-3 105 55 6 c113 12 101 25 98 -108z m-2648
61 c36 -14 39 -19 34 -43 -4 -14 -8 -27 -9 -28 -1 -2 -20 5 -43 15 -30 12 -42
23 -42 38 0 18 8 34 16 34 2 0 22 -7 44 -16z m450 -44 c-24 -15 -37 -11 -16 5
11 8 22 12 25 9 3 -3 -1 -9 -9 -14z m49 -12 c-9 -16 -14 -19 -17 -9 -2 7 2 17
9 22 20 13 21 11 8 -13z m-164 3 c3 -6 -3 -9 -14 -8 -11 0 -17 5 -15 9 7 11
22 10 29 -1z m55 -41 c0 -5 -2 -10 -4 -10 -3 0 -8 5 -11 10 -3 6 -1 10 4 10 6
0 11 -4 11 -10z m60 -5 c0 -8 7 -15 15 -15 8 0 15 -4 15 -9 0 -4 -11 -6 -24
-4 -17 4 -24 11 -23 24 2 22 17 26 17 4z m73 -10 c4 -8 2 -17 -3 -20 -6 -4
-10 3 -10 14 0 25 6 27 13 6z m-486 -132 c-3 -10 -5 -2 -5 17 0 19 2 27 5 18
2 -10 2 -26 0 -35z m2621 -24 c4 -31 -15 -39 -90 -39 l-48 0 0 35 0 36 68 -3
c64 -3 67 -4 70 -29z m10 -96 c-3 -27 -4 -28 -80 -31 -77 -4 -78 -3 -78 20 0
14 3 28 7 31 3 4 40 7 80 7 l74 0 -3 -27z m-1286 -228 c-2 -14 -8 -25 -13 -25
-12 0 -11 7 1 31 14 26 18 24 12 -6z m24 -33 c-11 -10 -14 3 -8 33 l7 30 3
-28 c2 -16 1 -31 -2 -35z"/>
<path d="M4915 4301 c0 -44 2 -48 22 -47 26 1 30 11 8 20 -11 4 -14 16 -11 41
3 23 0 35 -7 35 -8 0 -12 -18 -12 -49z"/>
<path d="M5290 3311 c0 -12 5 -21 10 -21 6 0 10 6 10 14 0 8 -4 18 -10 21 -5
3 -10 -3 -10 -14z"/>
<path d="M5483 2864 c-3 -8 -1 -20 6 -27 13 -13 16 -10 25 21 6 16 3 22 -9 22
-8 0 -18 -7 -22 -16z"/>
<path d="M5490 2792 c0 -5 7 -16 16 -23 14 -12 16 -11 13 5 -4 20 -29 35 -29
18z"/>
<path d="M3625 3120 c-3 -5 -1 -10 4 -10 6 0 11 5 11 10 0 6 -2 10 -4 10 -3 0
-8 -4 -11 -10z"/>
<path d="M3938 2973 c-10 -2 -18 -9 -18 -14 0 -14 26 -11 40 6 13 15 9 16 -22
8z"/>
<path d="M1330 3170 c0 -5 5 -10 11 -10 5 0 7 5 4 10 -3 6 -8 10 -11 10 -2 0
-4 -4 -4 -10z"/>
<path d="M4063 2731 c0 -11 5 -17 9 -15 11 7 10 34 -1 34 -6 0 -9 -9 -8 -19z"/>
<path d="M4031 2672 c-14 -27 -14 -32 3 -32 21 0 29 17 18 37 -9 15 -11 14
-21 -5z"/>
<path d="M1535 2470 c-3 -5 -1 -10 4 -10 6 0 11 5 11 10 0 6 -2 10 -4 10 -3 0
-8 -4 -11 -10z"/>
<path d="M2151 2600 c0 -29 1 -32 10 -17 7 11 7 23 0 35 -9 14 -10 11 -10 -18z"/>
<path d="M2096 2535 c-3 -8 -1 -15 4 -15 6 0 10 7 10 15 0 8 -2 15 -4 15 -2 0
-6 -7 -10 -15z"/>
<path d="M2108 2463 c7 -3 16 -2 19 1 4 3 -2 6 -13 5 -11 0 -14 -3 -6 -6z"/>
<path d="M2488 2263 c7 -3 16 -2 19 1 4 3 -2 6 -13 5 -11 0 -14 -3 -6 -6z"/>
<path d="M2431 2234 c-19 -8 -32 -17 -29 -20 3 -3 33 -6 67 -8 45 -2 61 1 61
10 0 14 -31 34 -52 34 -7 -1 -28 -7 -47 -16z"/>
<path d="M2692 1918 c6 -18 28 -21 28 -4 0 9 -7 16 -16 16 -9 0 -14 -5 -12
-12z"/>
<path d="M2417 1177 c-16 -20 -24 -57 -11 -57 6 0 37 71 32 75 -2 2 -11 -6
-21 -18z"/>
<path d="M2145 2159 c-4 -6 -5 -12 -2 -15 2 -3 7 2 10 11 7 17 1 20 -8 4z"/>
<path d="M1455 1290 c-8 -13 5 -13 25 0 13 8 13 10 -2 10 -9 0 -20 -4 -23 -10z"/>
<path d="M240 6346 c0 -9 5 -16 10 -16 6 0 10 4 10 9 0 6 -4 13 -10 16 -5 3
-10 -1 -10 -9z"/>
<path d="M4310 6260 c0 -5 5 -10 10 -10 6 0 10 5 10 10 0 6 -4 10 -10 10 -5 0
-10 -4 -10 -10z"/>
<path d="M4265 6198 c-3 -8 -1 -25 4 -39 7 -17 10 -19 10 -6 1 11 12 20 31 24
33 6 41 23 11 23 -11 0 -26 3 -35 6 -9 3 -18 0 -21 -8z"/>
<path d="M4675 6067 c-9 -104 -6 -121 23 -125 31 -5 36 17 23 91 -17 86 -19
101 -20 110 -1 4 -5 7 -10 7 -5 0 -12 -38 -16 -83z"/>
<path d="M5006 6099 c-3 -8 -7 -52 -8 -99 l-3 -85 28 -3 c32 -4 33 2 16 111
-12 74 -24 102 -33 76z"/>
<path d="M4767 6053 c-4 -3 -7 -33 -7 -65 0 -52 2 -58 21 -58 19 0 20 4 14 58
-7 58 -16 78 -28 65z"/>
<path d="M4546 5985 c-9 -23 -8 -25 9 -25 17 0 19 9 6 28 -7 11 -10 10 -15 -3z"/>
<path d="M1141 5674 c0 -11 3 -14 6 -6 3 7 2 16 -1 19 -3 4 -6 -2 -5 -13z"/>
<path d="M1820 5670 c0 -5 5 -10 10 -10 6 0 10 5 10 10 0 6 -4 10 -10 10 -5 0
-10 -4 -10 -10z"/>
<path d="M2100 4252 c0 -5 14 -7 30 -4 17 2 30 6 30 8 0 2 -13 4 -30 4 -16 0
-30 -4 -30 -8z"/>
<path d="M6315 3928 c1 -13 6 -23 11 -23 5 0 10 10 12 23 2 14 -2 22 -11 22
-8 0 -13 -9 -12 -22z"/>
<path d="M2898 3913 c7 -3 16 -2 19 1 4 3 -2 6 -13 5 -11 0 -14 -3 -6 -6z"/>
<path d="M2481 3734 c0 -11 3 -14 6 -6 3 7 2 16 -1 19 -3 4 -6 -2 -5 -13z"/>
<path d="M2521 3734 c0 -11 3 -14 6 -6 3 7 2 16 -1 19 -3 4 -6 -2 -5 -13z"/>
<path d="M2790 3675 c-7 -14 -11 -27 -9 -29 10 -8 129 -13 123 -5 -3 5 -12 9
-20 9 -8 0 -14 6 -14 14 0 17 -5 21 -41 29 -21 5 -28 2 -39 -18z"/>
<path d="M6370 3641 c0 -5 7 -11 15 -15 9 -3 15 0 15 9 0 8 -7 15 -15 15 -8 0
-15 -4 -15 -9z"/>
<path d="M220 3106 c0 -9 5 -16 10 -16 6 0 10 4 10 9 0 6 -4 13 -10 16 -5 3
-10 -1 -10 -9z"/>
<path d="M125 3010 c3 -5 8 -10 11 -10 2 0 4 5 4 10 0 6 -5 10 -11 10 -5 0 -7
-4 -4 -10z"/>
<path d="M4668 2934 c-12 -11 -10 -74 2 -74 6 0 10 -12 11 -27 0 -16 2 -23 5
-18 7 16 -10 127 -18 119z"/>
<path d="M50 2577 c0 -19 16 -31 24 -18 3 5 -1 14 -9 21 -12 10 -15 10 -15 -3z"/>
<path d="M0 2486 c0 -75 23 -149 54 -175 7 -6 26 -38 41 -70 l28 -58 27 15
c38 22 30 60 -14 64 -27 3 -31 7 -34 36 -2 17 1 32 6 32 11 0 26 69 18 77 -3
3 -12 0 -20 -6 -24 -20 -36 -5 -23 30 10 26 9 32 -6 43 -9 7 -17 16 -17 20 0
11 -43 66 -52 66 -4 0 -8 -33 -8 -74z m70 -42 c0 -8 -4 -12 -10 -9 -5 3 -10
10 -10 16 0 5 5 9 10 9 6 0 10 -7 10 -16z m-40 -18 c0 -3 -4 -8 -10 -11 -5 -3
-10 -1 -10 4 0 6 5 11 10 11 6 0 10 -2 10 -4z m60 -85 c0 -5 -7 -11 -15 -15
-9 -3 -15 0 -15 9 0 8 7 15 15 15 8 0 15 -4 15 -9z"/>
<path d="M1 2323 c-1 -24 4 -43 10 -43 5 0 15 -13 20 -30 6 -16 17 -30 25 -30
23 0 16 35 -11 60 -14 13 -29 38 -34 54 -9 30 -9 30 -10 -11z"/>
<path d="M140 2331 c0 -5 5 -13 10 -16 6 -3 10 -2 10 4 0 5 -4 13 -10 16 -5 3
-10 2 -10 -4z"/>
<path d="M6 2225 c9 -38 12 -42 20 -21 4 11 0 24 -10 34 -16 16 -17 15 -10
-13z"/>
<path d="M200 2199 c0 -5 5 -7 10 -4 6 3 10 8 10 11 0 2 -4 4 -10 4 -5 0 -10
-5 -10 -11z"/>
<path d="M72 2009 c1 -23 4 -27 15 -18 17 15 17 35 -1 42 -11 4 -14 -2 -14
-24z"/>
<path d="M18 2014 c-3 -5 -2 -20 2 -34 4 -18 8 -21 12 -10 6 17 -6 58 -14 44z"/>
<path d="M5110 1910 c6 -11 9 -24 6 -29 -7 -11 65 -77 92 -84 29 -7 31 28 2
43 -11 6 -20 17 -20 26 0 8 -8 18 -17 21 -9 4 -25 15 -35 25 -25 25 -42 24
-28 -2z"/>
<path d="M376 1834 c-4 -11 -1 -14 11 -12 9 2 18 9 21 16 6 18 -25 15 -32 -4z"/>
<path d="M5226 1761 c-3 -5 1 -11 9 -15 8 -3 15 -1 15 4 0 13 -18 22 -24 11z"/>
<path d="M5215 1710 c5 -34 39 -80 58 -80 6 0 1 10 -11 23 -11 12 -28 38 -37
57 l-16 35 6 -35z"/>
<path d="M180 1707 c0 -8 7 -20 15 -27 8 -7 12 -16 10 -21 -8 -12 5 -59 16
-59 5 0 9 21 9 47 0 39 2 44 13 31 6 -8 20 -18 30 -21 14 -5 17 -1 17 23 0 26
-4 30 -27 31 -16 0 -40 3 -55 5 -20 3 -28 0 -28 -9z"/>
<path d="M260 1541 c0 -5 5 -13 10 -16 6 -3 10 -2 10 4 0 5 -4 13 -10 16 -5 3
-10 2 -10 -4z"/>
<path d="M0 710 l0 -710 489 0 c422 0 490 2 501 15 7 8 18 15 26 15 7 0 16 5
19 11 5 7 -5 8 -29 4 -46 -9 -50 17 -6 35 43 18 47 31 9 28 -40 -4 -50 18 -15
33 34 16 34 31 0 23 -22 -6 -25 -4 -22 12 2 10 14 24 27 30 l24 12 -24 4 c-34
4 -37 36 -5 44 14 3 26 10 26 14 0 5 -8 6 -18 3 -10 -2 -24 2 -31 11 -10 12
-7 18 21 33 32 17 33 17 8 21 -39 6 -46 20 -17 33 23 11 41 44 32 59 -2 4 -34
6 -70 5 -59 -3 -68 0 -93 24 -15 15 -43 33 -62 41 -74 29 -87 46 -94 118 -3
37 -19 112 -35 167 -26 91 -30 100 -51 97 -13 -1 -28 -9 -35 -18 -10 -14 -15
-11 -40 23 -33 45 -92 103 -105 103 -11 0 -90 105 -90 119 0 5 33 -12 73 -39
39 -28 78 -50 86 -50 8 0 23 -7 33 -17 10 -9 21 -13 24 -10 15 15 -10 57 -74
123 -38 38 -72 82 -75 96 -4 16 -13 25 -24 24 -12 0 -19 7 -21 21 -3 22 -28
33 -97 45 -10 2 -22 14 -25 27 -3 14 -11 26 -18 29 -16 5 -15 -10 1 -27 10
-11 9 -13 -6 -7 -10 3 -30 6 -43 6 -14 0 -23 4 -19 9 9 16 -36 52 -51 40 -9
-7 -24 -4 -53 10 -22 12 -42 21 -45 21 -3 0 -5 -319 -6 -710z m124 633 c-4
-16 -2 -28 7 -34 18 -11 6 -21 -15 -13 -12 5 -16 16 -15 38 4 39 8 48 20 41 5
-4 6 -18 3 -32z m73 -39 c-9 -9 -28 6 -21 18 4 6 10 6 17 -1 6 -6 8 -13 4 -17z
m157 -60 c5 -14 4 -15 -9 -4 -17 14 -19 20 -6 20 5 0 12 -7 15 -16z m-44 -4
c13 -9 13 -10 0 -10 -8 0 -22 5 -30 10 -13 9 -13 10 0 10 8 0 22 -5 30 -10z
m91 -52 c11 -21 11 -22 -4 -9 -10 7 -17 17 -17 22 0 15 9 10 21 -13z m465
-946 c-9 -8 -26 10 -26 26 1 15 2 15 15 -2 8 -11 13 -21 11 -24z"/>
<path d="M5586 1197 c3 -10 9 -15 12 -12 3 3 0 11 -7 18 -10 9 -11 8 -5 -6z"/>
<path d="M3272 705 c0 -16 2 -22 5 -12 2 9 2 23 0 30 -3 6 -5 -1 -5 -18z"/>
<path d="M3262 650 c0 -14 2 -19 5 -12 2 6 2 18 0 25 -3 6 -5 1 -5 -13z"/>
<path d="M1048 173 c7 -3 16 -2 19 1 4 3 -2 6 -13 5 -11 0 -14 -3 -6 -6z"/>
<path d="M1138 173 c6 -2 18 -2 25 0 6 3 1 5 -13 5 -14 0 -19 -2 -12 -5z"/>
</g>
</svg>
